<svg width="267" height="192" viewBox="0 0 267 192" fill="none" xmlns="http://www.w3.org/2000/svg">
<path fill-rule="evenodd" clip-rule="evenodd" d="M267 0H0V170.556H193.738L267 192V0ZM69.5 99C78.6133 99 86 91.6123 86 82.5C86 73.3877 78.6133 66 69.5 66C60.3867 66 53 73.3877 53 82.5C53 91.6123 60.3867 99 69.5 99ZM147 82.5C147 91.6123 139.613 99 130.5 99C121.387 99 114 91.6123 114 82.5C114 73.3877 121.387 66 130.5 66C139.613 66 147 73.3877 147 82.5ZM191.5 99C200.613 99 208 91.6123 208 82.5C208 73.3877 200.613 66 191.5 66C182.387 66 175 73.3877 175 82.5C175 91.6123 182.387 99 191.5 99Z" fill="#6A0FFF"/>
</svg>
