<svg width="1746" height="911" viewBox="0 0 1746 911" fill="none" xmlns="http://www.w3.org/2000/svg">
<mask id="mask0_47_11720" style="mask-type:alpha" maskUnits="userSpaceOnUse" x="0" y="0" width="1746" height="911">
<rect width="1746" height="911" fill="#D9D9D9"/>
</mask>
<g mask="url(#mask0_47_11720)">
<path d="M3 0H1746V905H3V0Z" fill="#F5EFFF"/>
<path d="M338.141 675.831V662H289.036V675.831H271.437V902.302H355.733V675.831H338.141Z" fill="#DEDEF9"/>
<path d="M342.251 692.734H284.921V695.659H342.251V692.734Z" fill="#F5EFFF"/>
<path d="M342.251 718.796H284.921V721.721H342.251V718.796Z" fill="#F5EFFF"/>
<path d="M342.251 744.86H284.921V747.784H342.251V744.86Z" fill="#F5EFFF"/>
<path d="M342.251 770.914H284.921V773.839H342.251V770.914Z" fill="#F5EFFF"/>
<path d="M342.251 796.977H284.921V799.902H342.251V796.977Z" fill="#F5EFFF"/>
<path d="M342.251 823.04H284.921V825.964H342.251V823.04Z" fill="#F5EFFF"/>
<path d="M342.251 849.094H284.921V852.019H342.251V849.094Z" fill="#F5EFFF"/>
<path d="M342.251 875.158H284.921V878.082H342.251V875.158Z" fill="#F5EFFF"/>
<path d="M342.251 901.22H284.921V904.144H342.251V901.22Z" fill="#F5EFFF"/>
<path d="M862.834 776.566V746.483H822.275V716.393H738.171V1031.14H778.723V1061.23H819.283V1091.32H903.387V776.566H862.834Z" fill="#DEDEF9"/>
<path d="M806.577 742.175H755.133V744.803H806.577V742.175Z" fill="#F5EFFF"/>
<path d="M806.577 786.119H755.133V788.747H806.577V786.119Z" fill="#F5EFFF"/>
<path d="M806.577 830.062H755.133V832.69H806.577V830.062Z" fill="#F5EFFF"/>
<path d="M877.273 790.611H869.076V798.807H877.273V790.611Z" fill="#F5EFFF"/>
<path d="M894.154 790.611H885.958V798.807H894.154V790.611Z" fill="#F5EFFF"/>
<path d="M877.272 811.765H869.076V819.962H877.272V811.765Z" fill="#F5EFFF"/>
<path d="M894.154 811.765H885.958V819.962H894.154V811.765Z" fill="#F5EFFF"/>
<path d="M877.273 832.926H869.076V841.122H877.273V832.926Z" fill="#F5EFFF"/>
<path d="M894.154 832.926H885.958V841.122H894.154V832.926Z" fill="#F5EFFF"/>
<path d="M877.273 854.088H869.076V862.284H877.273V854.088Z" fill="#F5EFFF"/>
<path d="M894.154 854.088H885.958V862.284H894.154V854.088Z" fill="#F5EFFF"/>
<path d="M877.272 875.241H869.076V883.437H877.272V875.241Z" fill="#F5EFFF"/>
<path d="M894.154 875.241H885.958V883.437H894.154V875.241Z" fill="#F5EFFF"/>
<path d="M877.273 896.401H869.076V904.598H877.273V896.401Z" fill="#F5EFFF"/>
<path d="M894.154 896.401H885.958V904.598H894.154V896.401Z" fill="#F5EFFF"/>
<path d="M1557.06 746.483L1597.62 716.393L1746 716.393V1031.14H1641.17V1061.23H1600.61V1091.32H1516.51V776.566L1557.06 746.483Z" fill="#DEDEF9"/>
<path d="M1613.32 742.173H1664.76V744.801H1613.32V742.173Z" fill="#F5EFFF"/>
<path d="M1613.32 786.117H1664.76V788.745H1613.32V786.117Z" fill="#F5EFFF"/>
<path d="M1613.32 830.061H1664.76V832.689H1613.32V830.061Z" fill="#F5EFFF"/>
<path d="M1542.62 790.611H1550.82V798.807H1542.62V790.611Z" fill="#F5EFFF"/>
<path d="M1525.74 790.611H1533.94V798.807H1525.74V790.611Z" fill="#F5EFFF"/>
<path d="M1542.62 811.765H1550.82V819.962H1542.62V811.765Z" fill="#F5EFFF"/>
<path d="M1525.74 811.765H1533.94V819.962H1525.74V811.765Z" fill="#F5EFFF"/>
<path d="M1542.62 832.926H1550.82V841.122H1542.62V832.926Z" fill="#F5EFFF"/>
<path d="M1525.74 832.926H1533.94V841.122H1525.74V832.926Z" fill="#F5EFFF"/>
<path d="M1542.62 854.086H1550.82V862.282H1542.62V854.086Z" fill="#F5EFFF"/>
<path d="M1525.74 854.086H1533.94V862.282H1525.74V854.086Z" fill="#F5EFFF"/>
<path d="M1542.62 875.24H1550.82V883.436H1542.62V875.24Z" fill="#F5EFFF"/>
<path d="M1525.74 875.24H1533.94V883.436H1525.74V875.24Z" fill="#F5EFFF"/>
<path d="M1542.62 896.401H1550.82V904.598H1542.62V896.401Z" fill="#F5EFFF"/>
<path d="M1525.74 896.401H1533.94V904.598H1525.74V896.401Z" fill="#F5EFFF"/>
<path d="M1250.81 613.357V811.885H1222.08V700.667H1154.35V965.787H1333.66V613.357H1250.81Z" fill="#DEDEF9"/>
<path d="M1172.33 712.024H1167.33V885.962H1172.33V712.024Z" fill="#F5EFFF"/>
<path d="M1184.82 712.024H1179.82V885.962H1184.82V712.024Z" fill="#F5EFFF"/>
<path d="M1209.81 712.024H1204.81V885.962H1209.81V712.024Z" fill="#F5EFFF"/>
<path d="M1197.32 712.024H1192.32V885.962H1197.32V712.024Z" fill="#F5EFFF"/>
<path d="M1317.55 631.875H1268.78V638.946H1317.55V631.875Z" fill="#F5EFFF"/>
<path d="M1317.55 651.104H1268.78V658.175H1317.55V651.104Z" fill="#F5EFFF"/>
<path d="M1317.55 670.324H1268.78V677.395H1317.55V670.324Z" fill="#F5EFFF"/>
<path d="M1317.55 689.545H1268.78V696.616H1317.55V689.545Z" fill="#F5EFFF"/>
<path d="M1317.55 708.774H1268.78V715.845H1317.55V708.774Z" fill="#F5EFFF"/>
<path d="M1317.55 727.996H1268.78V735.067H1317.55V727.996Z" fill="#F5EFFF"/>
<path d="M1317.55 747.216H1268.78V754.287H1317.55V747.216Z" fill="#F5EFFF"/>
<path d="M1317.55 766.445H1268.78V773.516H1317.55V766.445Z" fill="#F5EFFF"/>
<path d="M1317.55 785.667H1268.78V792.737H1317.55V785.667Z" fill="#F5EFFF"/>
<path d="M1282.74 629.644H1277.53V809.802H1282.74V629.644Z" fill="#DEDEF9"/>
<path d="M1295.77 629.644H1290.56V809.802H1295.77V629.644Z" fill="#DEDEF9"/>
<path d="M1308.8 629.644H1303.59V809.802H1308.8V629.644Z" fill="#DEDEF9"/>
<path d="M1158.74 869.045H1117.34V892.849H1158.74V869.045Z" fill="#DEDEF9"/>
<path d="M1441.68 445.676C1453.67 441.307 1462.65 431.415 1473.2 424.226C1477.5 421.301 1482.26 418.747 1487.44 418.288C1492.62 417.829 1498.29 419.865 1500.92 424.344C1502.55 427.114 1503.02 430.675 1505.47 432.755C1509.7 436.346 1516.1 433.015 1520.36 429.475C1526.64 424.263 1532.76 418.391 1540.54 415.933C1548.33 413.475 1558.41 415.844 1561.54 423.382C1562.97 426.825 1562.87 431.023 1565.41 433.755C1568.1 436.657 1572.57 436.672 1576.44 437.553C1580.3 438.434 1584.54 441.833 1583.21 445.565L1441.68 445.676Z" fill="#FBF9FF"/>
<path d="M81 498.528C95.6158 500.216 106.389 482.379 120.871 479.758C124.736 479.055 129.327 479.847 132.037 482.394C134.917 485.104 139.108 485.978 142.677 484.275C145.083 483.127 147.43 481.572 149.703 480.269C156.485 476.367 164.378 474.427 172.197 474.724C174.492 474.812 176.854 475.109 178.838 476.264C183.022 478.692 184.132 483.749 184.221 488.814C184.273 491.812 187.079 494.004 189.982 493.278C191.692 492.849 193.417 492.301 195.135 492.116C198.881 491.724 203.568 495.551 201.251 498.528H81Z" fill="#FBF9FF"/>
<path d="M439.769 656.619V634.77H431.498V619.088H413.158V634.77H404.888V656.619H392.937V908.568H451.719V656.619H439.769Z" fill="#DEDEF9"/>
<path d="M1462.16 566.032V544.182H1447.65V528.507H1415.47V544.182H1400.96V566.032H1379.99L1379.99 977.343H1483.12V566.032H1462.16Z" fill="#DEDEF9"/>
<path d="M1420.88 589.855H1415.67V733.933H1420.88V589.855Z" fill="#F5EFFF"/>
<path d="M1433.92 589.855H1428.71V733.933H1433.92V589.855Z" fill="#F5EFFF"/>
<path d="M1459.98 589.855H1454.77V733.933H1459.98V589.855Z" fill="#F5EFFF"/>
<path d="M1407.85 589.855H1402.64V733.933H1407.85V589.855Z" fill="#F5EFFF"/>
<path d="M1446.94 589.855H1441.73V733.933H1446.94V589.855Z" fill="#F5EFFF"/>
<path d="M1468.22 611.16H1393.24V615.092H1468.22V611.16Z" fill="#DEDEF9"/>
<path d="M1468.22 641.554H1393.24V645.486H1468.22V641.554Z" fill="#DEDEF9"/>
<path d="M934.646 962.271V814.862H1084.75V748.632L1134.32 768.734V962.271H934.646Z" fill="#DEDEF9"/>
<path d="M617.918 964.663V725.812L699.053 752.934V963.834L617.918 964.663Z" fill="#DEDEF9"/>
<path d="M598.135 1027.85V789L517 816.121V1027.02L598.135 1027.85Z" fill="#DEDEF9"/>
<path d="M469.553 565.317C466.213 558.431 461.919 552.056 456.24 546.985C447.688 539.351 435.59 535.057 424.491 537.915C416.621 539.936 408.454 545.326 401.079 541.913C394.06 538.67 392.564 529.637 389.21 522.677C382.162 508.031 363.74 500.983 347.851 504.389C331.962 507.802 318.938 519.996 311.43 534.412C309.579 537.966 307.557 542.068 303.7 543.12C300.627 543.956 297.458 542.527 294.334 541.876C286.581 540.254 278.437 543.631 272.558 548.939C268.789 552.345 262.163 559.52 259.927 565.31H469.553V565.317Z" fill="#FBF9FF"/>
<path d="M1333.14 517.216C1327.9 515.364 1322.09 514.276 1318.09 510.419C1311.81 504.377 1312.46 494.181 1308.48 486.444C1304.23 478.181 1294.71 473.45 1285.42 473.279C1276.13 473.109 1267.12 476.937 1259.51 482.268C1256.43 484.43 1253.09 486.984 1249.01 484.963C1247.69 484.311 1246.6 483.275 1245.77 482.061C1243.31 478.455 1243.11 474.109 1241.91 470.073C1238.01 456.938 1223.46 448.957 1209.76 449.475C1196.07 449.993 1183.47 457.442 1173.44 466.771C1165.89 473.783 1159.44 481.964 1154.36 490.923C1151.4 496.143 1145.14 498.713 1139.42 496.891C1131.39 494.337 1121.46 496.336 1114.41 501.497C1113.55 502.126 1112.72 502.792 1111.92 503.481C1107.16 507.605 1101 509.671 1094.72 509.315C1093.7 509.256 1092.67 509.226 1091.64 509.226C1075.08 509.226 1061.32 516.66 1058.49 526.448H1344.15C1342.68 521.902 1337.81 518.874 1333.14 517.216Z" fill="#FBF9FF"/>
<path d="M1214.14 742.138H1162.71V746.736H1214.14V742.138Z" fill="#DEDEF9"/>
<path d="M1214.14 789.525H1162.71V794.123H1214.14V789.525Z" fill="#DEDEF9"/>
<path d="M1214.14 836.91H1162.71V841.508H1214.14V836.91Z" fill="#DEDEF9"/>
<path d="M1214.14 884.297H1162.71V888.895H1214.14V884.297Z" fill="#DEDEF9"/>
<path d="M1245.19 722.449L1245.19 718.154L1215.97 718.154L1215.97 722.449L1245.19 722.449Z" fill="#D6D4FF"/>
<path d="M1215.96 735.935L1245.18 735.935L1245.18 722.449L1215.96 722.449L1215.96 735.935Z" fill="#B5B5F7"/>
<path d="M1242.34 697H1245.19V718.156H1225.03L1242.34 697Z" fill="#B5B5F7"/>
<path d="M1274.41 722.451L1274.41 718.156L1245.18 718.156L1245.18 722.451L1274.41 722.451Z" fill="#D6D4FF"/>
<path d="M1274.41 722.444H1245.19V735.93H1274.41V722.444Z" fill="#9696EA"/>
<path d="M1248.04 697H1245.19V718.156H1265.35L1248.04 697Z" fill="#9696EA"/>
<path d="M1206.46 906.749L1245.19 906.749L1245.19 735.877L1206.46 735.877L1206.46 906.749Z" fill="#D6D4FF"/>
<path d="M1283.92 735.878H1245.19V906.75H1283.92V735.878Z" fill="#B5B5F7"/>
<path d="M1245.19 753.182L1261.56 753.182L1261.56 746.631L1245.19 746.631L1245.19 753.182Z" fill="#9696EA"/>
<path d="M1267.72 753.187C1269.53 753.187 1271 751.721 1271 749.912C1271 748.103 1269.53 746.636 1267.72 746.636C1265.91 746.636 1264.44 748.103 1264.44 749.912C1264.44 751.721 1265.91 753.187 1267.72 753.187Z" fill="#9696EA"/>
<path d="M1277.31 753.187C1279.12 753.187 1280.59 751.721 1280.59 749.912C1280.59 748.103 1279.12 746.636 1277.31 746.636C1275.5 746.636 1274.04 748.103 1274.04 749.912C1274.04 751.721 1275.5 753.187 1277.31 753.187Z" fill="#9696EA"/>
<path d="M1245.19 768.964L1261.56 768.964L1261.56 762.414L1245.19 762.414L1245.19 768.964Z" fill="#9696EA"/>
<path d="M1267.72 768.965C1269.53 768.965 1271 767.498 1271 765.689C1271 763.88 1269.53 762.414 1267.72 762.414C1265.91 762.414 1264.44 763.88 1264.44 765.689C1264.44 767.498 1265.91 768.965 1267.72 768.965Z" fill="#9696EA"/>
<path d="M1277.31 768.965C1279.12 768.965 1280.59 767.498 1280.59 765.689C1280.59 763.88 1279.12 762.414 1277.31 762.414C1275.5 762.414 1274.04 763.88 1274.04 765.689C1274.04 767.498 1275.5 768.965 1277.31 768.965Z" fill="#9696EA"/>
<path d="M1245.19 784.742L1261.56 784.742L1261.56 778.191L1245.19 778.191L1245.19 784.742Z" fill="#9696EA"/>
<path d="M1267.72 784.747C1269.53 784.747 1271 783.28 1271 781.472C1271 779.663 1269.53 778.196 1267.72 778.196C1265.91 778.196 1264.44 779.663 1264.44 781.472C1264.44 783.28 1265.91 784.747 1267.72 784.747Z" fill="#9696EA"/>
<path d="M1277.31 784.747C1279.12 784.747 1280.59 783.28 1280.59 781.472C1280.59 779.663 1279.12 778.196 1277.31 778.196C1275.5 778.196 1274.04 779.663 1274.04 781.472C1274.04 783.28 1275.5 784.747 1277.31 784.747Z" fill="#9696EA"/>
<path d="M1245.19 800.525L1261.56 800.525L1261.56 793.974L1245.19 793.974L1245.19 800.525Z" fill="#9696EA"/>
<path d="M1267.72 800.523C1269.53 800.523 1271 799.057 1271 797.248C1271 795.439 1269.53 793.973 1267.72 793.973C1265.91 793.973 1264.44 795.439 1264.44 797.248C1264.44 799.057 1265.91 800.523 1267.72 800.523Z" fill="#9696EA"/>
<path d="M1277.31 800.523C1279.12 800.523 1280.59 799.057 1280.59 797.248C1280.59 795.439 1279.12 793.973 1277.31 793.973C1275.5 793.973 1274.04 795.439 1274.04 797.248C1274.04 799.057 1275.5 800.523 1277.31 800.523Z" fill="#9696EA"/>
<path d="M1245.19 816.302L1261.56 816.302L1261.56 809.752L1245.19 809.752L1245.19 816.302Z" fill="#9696EA"/>
<path d="M1267.72 816.304C1269.53 816.304 1271 814.837 1271 813.028C1271 811.219 1269.53 809.753 1267.72 809.753C1265.91 809.753 1264.44 811.219 1264.44 813.028C1264.44 814.837 1265.91 816.304 1267.72 816.304Z" fill="#9696EA"/>
<path d="M1277.31 816.304C1279.12 816.304 1280.59 814.837 1280.59 813.028C1280.59 811.219 1279.12 809.753 1277.31 809.753C1275.5 809.753 1274.04 811.219 1274.04 813.028C1274.04 814.837 1275.5 816.304 1277.31 816.304Z" fill="#9696EA"/>
<path d="M1245.19 832.083L1261.56 832.083L1261.56 825.532L1245.19 825.532L1245.19 832.083Z" fill="#9696EA"/>
<path d="M1267.72 832.081C1269.53 832.081 1271 830.615 1271 828.806C1271 826.997 1269.53 825.531 1267.72 825.531C1265.91 825.531 1264.44 826.997 1264.44 828.806C1264.44 830.615 1265.91 832.081 1267.72 832.081Z" fill="#9696EA"/>
<path d="M1277.31 832.081C1279.12 832.081 1280.59 830.615 1280.59 828.806C1280.59 826.997 1279.12 825.531 1277.31 825.531C1275.5 825.531 1274.04 826.997 1274.04 828.806C1274.04 830.615 1275.5 832.081 1277.31 832.081Z" fill="#9696EA"/>
<path d="M1245.19 847.859L1261.56 847.859L1261.56 841.308L1245.19 841.308L1245.19 847.859Z" fill="#9696EA"/>
<path d="M1267.72 847.864C1269.53 847.864 1271 846.398 1271 844.589C1271 842.78 1269.53 841.314 1267.72 841.314C1265.91 841.314 1264.44 842.78 1264.44 844.589C1264.44 846.398 1265.91 847.864 1267.72 847.864Z" fill="#9696EA"/>
<path d="M1277.31 847.864C1279.12 847.864 1280.59 846.398 1280.59 844.589C1280.59 842.78 1279.12 841.314 1277.31 841.314C1275.5 841.314 1274.04 842.78 1274.04 844.589C1274.04 846.398 1275.5 847.864 1277.31 847.864Z" fill="#9696EA"/>
<path d="M1245.19 895.201L1261.56 895.201L1261.56 888.65L1245.19 888.65L1245.19 895.201Z" fill="#9696EA"/>
<path d="M1267.72 895.2C1269.53 895.2 1271 893.733 1271 891.924C1271 890.115 1269.53 888.649 1267.72 888.649C1265.91 888.649 1264.44 890.115 1264.44 891.924C1264.44 893.733 1265.91 895.2 1267.72 895.2Z" fill="#9696EA"/>
<path d="M1277.31 895.2C1279.12 895.2 1280.59 893.733 1280.59 891.924C1280.59 890.115 1279.12 888.649 1277.31 888.649C1275.5 888.649 1274.04 890.115 1274.04 891.924C1274.04 893.733 1275.5 895.2 1277.31 895.2Z" fill="#9696EA"/>
<path d="M1245.19 879.419L1261.56 879.419L1261.56 872.868L1245.19 872.868L1245.19 879.419Z" fill="#9696EA"/>
<path d="M1267.72 879.423C1269.53 879.423 1271 877.957 1271 876.148C1271 874.339 1269.53 872.872 1267.72 872.872C1265.91 872.872 1264.44 874.339 1264.44 876.148C1264.44 877.957 1265.91 879.423 1267.72 879.423Z" fill="#9696EA"/>
<path d="M1277.31 879.423C1279.12 879.423 1280.59 877.957 1280.59 876.148C1280.59 874.339 1279.12 872.872 1277.31 872.872C1275.5 872.872 1274.04 874.339 1274.04 876.148C1274.04 877.957 1275.5 879.423 1277.31 879.423Z" fill="#9696EA"/>
<path d="M1245.19 863.641L1261.56 863.641L1261.56 857.091L1245.19 857.091L1245.19 863.641Z" fill="#9696EA"/>
<path d="M1267.72 863.64C1269.53 863.64 1271 862.174 1271 860.365C1271 858.556 1269.53 857.089 1267.72 857.089C1265.91 857.089 1264.44 858.556 1264.44 860.365C1264.44 862.174 1265.91 863.64 1267.72 863.64Z" fill="#9696EA"/>
<path d="M1277.31 863.64C1279.12 863.64 1280.59 862.174 1280.59 860.365C1280.59 858.556 1279.12 857.089 1277.31 857.089C1275.5 857.089 1274.04 858.556 1274.04 860.365C1274.04 862.174 1275.5 863.64 1277.31 863.64Z" fill="#9696EA"/>
<path d="M1245.19 746.636H1228.81V753.187H1245.19V746.636Z" fill="#B5B5F7"/>
<path d="M1222.66 753.187C1224.47 753.187 1225.93 751.721 1225.93 749.912C1225.93 748.103 1224.47 746.636 1222.66 746.636C1220.85 746.636 1219.38 748.103 1219.38 749.912C1219.38 751.721 1220.85 753.187 1222.66 753.187Z" fill="#B5B5F7"/>
<path d="M1213.06 753.187C1214.87 753.187 1216.34 751.721 1216.34 749.912C1216.34 748.103 1214.87 746.636 1213.06 746.636C1211.25 746.636 1209.79 748.103 1209.79 749.912C1209.79 751.721 1211.25 753.187 1213.06 753.187Z" fill="#B5B5F7"/>
<path d="M1245.19 762.414H1228.81V768.965H1245.19V762.414Z" fill="#B5B5F7"/>
<path d="M1222.66 768.965C1224.47 768.965 1225.93 767.498 1225.93 765.689C1225.93 763.88 1224.47 762.414 1222.66 762.414C1220.85 762.414 1219.38 763.88 1219.38 765.689C1219.38 767.498 1220.85 768.965 1222.66 768.965Z" fill="#B5B5F7"/>
<path d="M1213.06 768.965C1214.87 768.965 1216.34 767.498 1216.34 765.689C1216.34 763.88 1214.87 762.414 1213.06 762.414C1211.25 762.414 1209.79 763.88 1209.79 765.689C1209.79 767.498 1211.25 768.965 1213.06 768.965Z" fill="#B5B5F7"/>
<path d="M1245.19 778.196H1228.81V784.747H1245.19V778.196Z" fill="#B5B5F7"/>
<path d="M1222.66 784.747C1224.47 784.747 1225.93 783.28 1225.93 781.472C1225.93 779.663 1224.47 778.196 1222.66 778.196C1220.85 778.196 1219.38 779.663 1219.38 781.472C1219.38 783.28 1220.85 784.747 1222.66 784.747Z" fill="#B5B5F7"/>
<path d="M1213.06 784.747C1214.87 784.747 1216.34 783.28 1216.34 781.472C1216.34 779.663 1214.87 778.196 1213.06 778.196C1211.25 778.196 1209.79 779.663 1209.79 781.472C1209.79 783.28 1211.25 784.747 1213.06 784.747Z" fill="#B5B5F7"/>
<path d="M1245.19 793.973H1228.81V800.523H1245.19V793.973Z" fill="#B5B5F7"/>
<path d="M1222.66 800.523C1224.47 800.523 1225.93 799.057 1225.93 797.248C1225.93 795.439 1224.47 793.973 1222.66 793.973C1220.85 793.973 1219.38 795.439 1219.38 797.248C1219.38 799.057 1220.85 800.523 1222.66 800.523Z" fill="#B5B5F7"/>
<path d="M1213.06 800.523C1214.87 800.523 1216.34 799.057 1216.34 797.248C1216.34 795.439 1214.87 793.973 1213.06 793.973C1211.25 793.973 1209.79 795.439 1209.79 797.248C1209.79 799.057 1211.25 800.523 1213.06 800.523Z" fill="#B5B5F7"/>
<path d="M1245.19 809.753H1228.81V816.304H1245.19V809.753Z" fill="#B5B5F7"/>
<path d="M1222.66 816.304C1224.47 816.304 1225.93 814.837 1225.93 813.028C1225.93 811.219 1224.47 809.753 1222.66 809.753C1220.85 809.753 1219.38 811.219 1219.38 813.028C1219.38 814.837 1220.85 816.304 1222.66 816.304Z" fill="#B5B5F7"/>
<path d="M1213.06 816.304C1214.87 816.304 1216.34 814.837 1216.34 813.028C1216.34 811.219 1214.87 809.753 1213.06 809.753C1211.25 809.753 1209.79 811.219 1209.79 813.028C1209.79 814.837 1211.25 816.304 1213.06 816.304Z" fill="#B5B5F7"/>
<path d="M1245.19 825.531H1228.81V832.081H1245.19V825.531Z" fill="#B5B5F7"/>
<path d="M1222.66 832.081C1224.47 832.081 1225.93 830.615 1225.93 828.806C1225.93 826.997 1224.47 825.531 1222.66 825.531C1220.85 825.531 1219.38 826.997 1219.38 828.806C1219.38 830.615 1220.85 832.081 1222.66 832.081Z" fill="#B5B5F7"/>
<path d="M1213.06 832.081C1214.87 832.081 1216.34 830.615 1216.34 828.806C1216.34 826.997 1214.87 825.531 1213.06 825.531C1211.25 825.531 1209.79 826.997 1209.79 828.806C1209.79 830.615 1211.25 832.081 1213.06 832.081Z" fill="#B5B5F7"/>
<path d="M1245.19 841.314H1228.81V847.864H1245.19V841.314Z" fill="#B5B5F7"/>
<path d="M1222.66 847.864C1224.47 847.864 1225.93 846.398 1225.93 844.589C1225.93 842.78 1224.47 841.314 1222.66 841.314C1220.85 841.314 1219.38 842.78 1219.38 844.589C1219.38 846.398 1220.85 847.864 1222.66 847.864Z" fill="#B5B5F7"/>
<path d="M1213.06 847.864C1214.87 847.864 1216.34 846.398 1216.34 844.589C1216.34 842.78 1214.87 841.314 1213.06 841.314C1211.25 841.314 1209.79 842.78 1209.79 844.589C1209.79 846.398 1211.25 847.864 1213.06 847.864Z" fill="#B5B5F7"/>
<path d="M1245.19 888.649H1228.81V895.2H1245.19V888.649Z" fill="#B5B5F7"/>
<path d="M1222.66 895.2C1224.47 895.2 1225.93 893.733 1225.93 891.924C1225.93 890.115 1224.47 888.649 1222.66 888.649C1220.85 888.649 1219.38 890.115 1219.38 891.924C1219.38 893.733 1220.85 895.2 1222.66 895.2Z" fill="#B5B5F7"/>
<path d="M1213.06 895.2C1214.87 895.2 1216.34 893.733 1216.34 891.924C1216.34 890.115 1214.87 888.649 1213.06 888.649C1211.25 888.649 1209.79 890.115 1209.79 891.924C1209.79 893.733 1211.25 895.2 1213.06 895.2Z" fill="#B5B5F7"/>
<path d="M1245.19 872.872H1228.81V879.423H1245.19V872.872Z" fill="#B5B5F7"/>
<path d="M1222.66 879.423C1224.47 879.423 1225.93 877.957 1225.93 876.148C1225.93 874.339 1224.47 872.872 1222.66 872.872C1220.85 872.872 1219.38 874.339 1219.38 876.148C1219.38 877.957 1220.85 879.423 1222.66 879.423Z" fill="#B5B5F7"/>
<path d="M1213.06 879.423C1214.87 879.423 1216.34 877.957 1216.34 876.148C1216.34 874.339 1214.87 872.872 1213.06 872.872C1211.25 872.872 1209.79 874.339 1209.79 876.148C1209.79 877.957 1211.25 879.423 1213.06 879.423Z" fill="#B5B5F7"/>
<path d="M1245.19 857.089H1228.81V863.64H1245.19V857.089Z" fill="#B5B5F7"/>
<path d="M1222.66 863.64C1224.47 863.64 1225.93 862.174 1225.93 860.365C1225.93 858.556 1224.47 857.089 1222.66 857.089C1220.85 857.089 1219.38 858.556 1219.38 860.365C1219.38 862.174 1220.85 863.64 1222.66 863.64Z" fill="#B5B5F7"/>
<path d="M1213.06 863.64C1214.87 863.64 1216.34 862.174 1216.34 860.365C1216.34 858.556 1214.87 857.089 1213.06 857.089C1211.25 857.089 1209.79 858.556 1209.79 860.365C1209.79 862.174 1211.25 863.64 1213.06 863.64Z" fill="#B5B5F7"/>
<path d="M1377 670.457L1377 664.135L1333.99 664.135L1333.99 670.457L1377 670.457Z" fill="#D6D4FF"/>
<path d="M1333.98 690.306L1376.99 690.306L1376.99 670.457L1333.98 670.457L1333.98 690.306Z" fill="#B5B5F7"/>
<path d="M1372.8 633H1377V664.137H1347.33L1372.8 633Z" fill="#B5B5F7"/>
<path d="M1420 670.46L1420 664.138L1376.99 664.138L1376.99 670.46L1420 670.46Z" fill="#D6D4FF"/>
<path d="M1420.01 670.449H1377V690.298H1420.01V670.449Z" fill="#9696EA"/>
<path d="M1381.2 633H1377V664.137H1406.67L1381.2 633Z" fill="#9696EA"/>
<path d="M1320 941.712L1377 941.712L1377 690.22L1320 690.22L1320 941.712Z" fill="#D6D4FF"/>
<path d="M1434 690.222H1377V941.714H1434V690.222Z" fill="#B5B5F7"/>
<path d="M1377 715.69L1401.1 715.69L1401.1 706.048L1377 706.048L1377 715.69Z" fill="#9696EA"/>
<path d="M1410.16 715.697C1412.82 715.697 1414.98 713.539 1414.98 710.876C1414.98 708.214 1412.82 706.056 1410.16 706.056C1407.5 706.056 1405.34 708.214 1405.34 710.876C1405.34 713.539 1407.5 715.697 1410.16 715.697Z" fill="#9696EA"/>
<path d="M1424.28 715.697C1426.94 715.697 1429.1 713.539 1429.1 710.876C1429.1 708.214 1426.94 706.056 1424.28 706.056C1421.62 706.056 1419.46 708.214 1419.46 710.876C1419.46 713.539 1421.62 715.697 1424.28 715.697Z" fill="#9696EA"/>
<path d="M1377 738.918L1401.1 738.918L1401.1 729.277L1377 729.277L1377 738.918Z" fill="#9696EA"/>
<path d="M1410.16 738.919C1412.82 738.919 1414.98 736.761 1414.98 734.098C1414.98 731.436 1412.82 729.277 1410.16 729.277C1407.5 729.277 1405.34 731.436 1405.34 734.098C1405.34 736.761 1407.5 738.919 1410.16 738.919Z" fill="#9696EA"/>
<path d="M1424.28 738.919C1426.94 738.919 1429.1 736.761 1429.1 734.098C1429.1 731.436 1426.94 729.277 1424.28 729.277C1421.62 729.277 1419.46 731.436 1419.46 734.098C1419.46 736.761 1421.62 738.919 1424.28 738.919Z" fill="#9696EA"/>
<path d="M1377 762.14L1401.1 762.14L1401.1 752.498L1377 752.498L1377 762.14Z" fill="#9696EA"/>
<path d="M1410.16 762.147C1412.82 762.147 1414.98 759.989 1414.98 757.327C1414.98 754.664 1412.82 752.506 1410.16 752.506C1407.5 752.506 1405.34 754.664 1405.34 757.327C1405.34 759.989 1407.5 762.147 1410.16 762.147Z" fill="#9696EA"/>
<path d="M1424.28 762.147C1426.94 762.147 1429.1 759.989 1429.1 757.327C1429.1 754.664 1426.94 752.506 1424.28 752.506C1421.62 752.506 1419.46 754.664 1419.46 757.327C1419.46 759.989 1421.62 762.147 1424.28 762.147Z" fill="#9696EA"/>
<path d="M1377 785.37L1401.1 785.37L1401.1 775.728L1377 775.728L1377 785.37Z" fill="#9696EA"/>
<path d="M1410.16 785.367C1412.82 785.367 1414.98 783.209 1414.98 780.547C1414.98 777.884 1412.82 775.726 1410.16 775.726C1407.5 775.726 1405.34 777.884 1405.34 780.547C1405.34 783.209 1407.5 785.367 1410.16 785.367Z" fill="#9696EA"/>
<path d="M1424.28 785.367C1426.94 785.367 1429.1 783.209 1429.1 780.547C1429.1 777.884 1426.94 775.726 1424.28 775.726C1421.62 775.726 1419.46 777.884 1419.46 780.547C1419.46 783.209 1421.62 785.367 1424.28 785.367Z" fill="#9696EA"/>
<path d="M1377 808.591L1401.1 808.591L1401.1 798.95L1377 798.95L1377 808.591Z" fill="#9696EA"/>
<path d="M1410.16 808.593C1412.82 808.593 1414.98 806.435 1414.98 803.773C1414.98 801.11 1412.82 798.952 1410.16 798.952C1407.5 798.952 1405.34 801.11 1405.34 803.773C1405.34 806.435 1407.5 808.593 1410.16 808.593Z" fill="#9696EA"/>
<path d="M1424.28 808.593C1426.94 808.593 1429.1 806.435 1429.1 803.773C1429.1 801.11 1426.94 798.952 1424.28 798.952C1421.62 798.952 1419.46 801.11 1419.46 803.773C1419.46 806.435 1421.62 808.593 1424.28 808.593Z" fill="#9696EA"/>
<path d="M1377 831.817L1401.1 831.817L1401.1 822.176L1377 822.176L1377 831.817Z" fill="#9696EA"/>
<path d="M1410.16 831.815C1412.82 831.815 1414.98 829.657 1414.98 826.994C1414.98 824.332 1412.82 822.173 1410.16 822.173C1407.5 822.173 1405.34 824.332 1405.34 826.994C1405.34 829.657 1407.5 831.815 1410.16 831.815Z" fill="#9696EA"/>
<path d="M1424.28 831.815C1426.94 831.815 1429.1 829.657 1429.1 826.994C1429.1 824.332 1426.94 822.173 1424.28 822.173C1421.62 822.173 1419.46 824.332 1419.46 826.994C1419.46 829.657 1421.62 831.815 1424.28 831.815Z" fill="#9696EA"/>
<path d="M1377 855.037L1401.1 855.037L1401.1 845.396L1377 845.396L1377 855.037Z" fill="#9696EA"/>
<path d="M1410.16 855.045C1412.82 855.045 1414.98 852.887 1414.98 850.224C1414.98 847.562 1412.82 845.403 1410.16 845.403C1407.5 845.403 1405.34 847.562 1405.34 850.224C1405.34 852.887 1407.5 855.045 1410.16 855.045Z" fill="#9696EA"/>
<path d="M1424.28 855.045C1426.94 855.045 1429.1 852.887 1429.1 850.224C1429.1 847.562 1426.94 845.403 1424.28 845.403C1421.62 845.403 1419.46 847.562 1419.46 850.224C1419.46 852.887 1421.62 855.045 1424.28 855.045Z" fill="#9696EA"/>
<path d="M1377 901.487L1401.1 901.487L1401.1 891.846L1377 891.846L1377 901.487Z" fill="#9696EA"/>
<path d="M1410.16 901.493C1412.82 901.493 1414.98 899.335 1414.98 896.673C1414.98 894.01 1412.82 891.852 1410.16 891.852C1407.5 891.852 1405.34 894.01 1405.34 896.673C1405.34 899.335 1407.5 901.493 1410.16 901.493Z" fill="#9696EA"/>
<path d="M1424.28 901.493C1426.94 901.493 1429.1 899.335 1429.1 896.673C1429.1 894.01 1426.94 891.852 1424.28 891.852C1421.62 891.852 1419.46 894.01 1419.46 896.673C1419.46 899.335 1421.62 901.493 1424.28 901.493Z" fill="#9696EA"/>
<path d="M1377 878.266L1401.1 878.266L1401.1 868.624L1377 868.624L1377 878.266Z" fill="#9696EA"/>
<path d="M1410.16 878.264C1412.82 878.264 1414.98 876.105 1414.98 873.443C1414.98 870.78 1412.82 868.622 1410.16 868.622C1407.5 868.622 1405.34 870.78 1405.34 873.443C1405.34 876.105 1407.5 878.264 1410.16 878.264Z" fill="#9696EA"/>
<path d="M1424.28 878.264C1426.94 878.264 1429.1 876.105 1429.1 873.443C1429.1 870.78 1426.94 868.622 1424.28 868.622C1421.62 868.622 1419.46 870.78 1419.46 873.443C1419.46 876.105 1421.62 878.264 1424.28 878.264Z" fill="#9696EA"/>
<path d="M1377 706.056H1352.89V715.697H1377V706.056Z" fill="#B5B5F7"/>
<path d="M1343.84 715.697C1346.5 715.697 1348.66 713.539 1348.66 710.876C1348.66 708.214 1346.5 706.056 1343.84 706.056C1341.17 706.056 1339.02 708.214 1339.02 710.876C1339.02 713.539 1341.17 715.697 1343.84 715.697Z" fill="#B5B5F7"/>
<path d="M1329.72 715.697C1332.38 715.697 1334.54 713.539 1334.54 710.876C1334.54 708.214 1332.38 706.056 1329.72 706.056C1327.05 706.056 1324.9 708.214 1324.9 710.876C1324.9 713.539 1327.05 715.697 1329.72 715.697Z" fill="#B5B5F7"/>
<path d="M1377 729.277H1352.89V738.919H1377V729.277Z" fill="#B5B5F7"/>
<path d="M1343.84 738.919C1346.5 738.919 1348.66 736.761 1348.66 734.098C1348.66 731.436 1346.5 729.277 1343.84 729.277C1341.17 729.277 1339.02 731.436 1339.02 734.098C1339.02 736.761 1341.17 738.919 1343.84 738.919Z" fill="#B5B5F7"/>
<path d="M1329.72 738.919C1332.38 738.919 1334.54 736.761 1334.54 734.098C1334.54 731.436 1332.38 729.277 1329.72 729.277C1327.05 729.277 1324.9 731.436 1324.9 734.098C1324.9 736.761 1327.05 738.919 1329.72 738.919Z" fill="#B5B5F7"/>
<path d="M1377 752.506H1352.89V762.147H1377V752.506Z" fill="#B5B5F7"/>
<path d="M1343.84 762.147C1346.5 762.147 1348.66 759.989 1348.66 757.327C1348.66 754.664 1346.5 752.506 1343.84 752.506C1341.17 752.506 1339.02 754.664 1339.02 757.327C1339.02 759.989 1341.17 762.147 1343.84 762.147Z" fill="#B5B5F7"/>
<path d="M1329.72 762.147C1332.38 762.147 1334.54 759.989 1334.54 757.327C1334.54 754.664 1332.38 752.506 1329.72 752.506C1327.05 752.506 1324.9 754.664 1324.9 757.327C1324.9 759.989 1327.05 762.147 1329.72 762.147Z" fill="#B5B5F7"/>
<path d="M1377 775.726H1352.89V785.367H1377V775.726Z" fill="#B5B5F7"/>
<path d="M1343.84 785.367C1346.5 785.367 1348.66 783.209 1348.66 780.547C1348.66 777.884 1346.5 775.726 1343.84 775.726C1341.17 775.726 1339.02 777.884 1339.02 780.547C1339.02 783.209 1341.17 785.367 1343.84 785.367Z" fill="#B5B5F7"/>
<path d="M1329.72 785.367C1332.38 785.367 1334.54 783.209 1334.54 780.547C1334.54 777.884 1332.38 775.726 1329.72 775.726C1327.05 775.726 1324.9 777.884 1324.9 780.547C1324.9 783.209 1327.05 785.367 1329.72 785.367Z" fill="#B5B5F7"/>
<path d="M1377 798.952H1352.89V808.593H1377V798.952Z" fill="#B5B5F7"/>
<path d="M1343.84 808.593C1346.5 808.593 1348.66 806.435 1348.66 803.773C1348.66 801.11 1346.5 798.952 1343.84 798.952C1341.17 798.952 1339.02 801.11 1339.02 803.773C1339.02 806.435 1341.17 808.593 1343.84 808.593Z" fill="#B5B5F7"/>
<path d="M1329.72 808.593C1332.38 808.593 1334.54 806.435 1334.54 803.773C1334.54 801.11 1332.38 798.952 1329.72 798.952C1327.05 798.952 1324.9 801.11 1324.9 803.773C1324.9 806.435 1327.05 808.593 1329.72 808.593Z" fill="#B5B5F7"/>
<path d="M1377 822.173H1352.89V831.815H1377V822.173Z" fill="#B5B5F7"/>
<path d="M1343.84 831.815C1346.5 831.815 1348.66 829.657 1348.66 826.994C1348.66 824.332 1346.5 822.173 1343.84 822.173C1341.17 822.173 1339.02 824.332 1339.02 826.994C1339.02 829.657 1341.17 831.815 1343.84 831.815Z" fill="#B5B5F7"/>
<path d="M1329.72 831.815C1332.38 831.815 1334.54 829.657 1334.54 826.994C1334.54 824.332 1332.38 822.173 1329.72 822.173C1327.05 822.173 1324.9 824.332 1324.9 826.994C1324.9 829.657 1327.05 831.815 1329.72 831.815Z" fill="#B5B5F7"/>
<path d="M1377 845.403H1352.89V855.045H1377V845.403Z" fill="#B5B5F7"/>
<path d="M1343.84 855.045C1346.5 855.045 1348.66 852.887 1348.66 850.224C1348.66 847.562 1346.5 845.403 1343.84 845.403C1341.17 845.403 1339.02 847.562 1339.02 850.224C1339.02 852.887 1341.17 855.045 1343.84 855.045Z" fill="#B5B5F7"/>
<path d="M1329.72 855.045C1332.38 855.045 1334.54 852.887 1334.54 850.224C1334.54 847.562 1332.38 845.403 1329.72 845.403C1327.05 845.403 1324.9 847.562 1324.9 850.224C1324.9 852.887 1327.05 855.045 1329.72 855.045Z" fill="#B5B5F7"/>
<path d="M1377 891.852H1352.89V901.493H1377V891.852Z" fill="#B5B5F7"/>
<path d="M1343.84 901.493C1346.5 901.493 1348.66 899.335 1348.66 896.673C1348.66 894.01 1346.5 891.852 1343.84 891.852C1341.17 891.852 1339.02 894.01 1339.02 896.673C1339.02 899.335 1341.17 901.493 1343.84 901.493Z" fill="#B5B5F7"/>
<path d="M1329.72 901.493C1332.38 901.493 1334.54 899.335 1334.54 896.673C1334.54 894.01 1332.38 891.852 1329.72 891.852C1327.05 891.852 1324.9 894.01 1324.9 896.673C1324.9 899.335 1327.05 901.493 1329.72 901.493Z" fill="#B5B5F7"/>
<path d="M1377 868.622H1352.89V878.264H1377V868.622Z" fill="#B5B5F7"/>
<path d="M1343.84 878.264C1346.5 878.264 1348.66 876.105 1348.66 873.443C1348.66 870.78 1346.5 868.622 1343.84 868.622C1341.17 868.622 1339.02 870.78 1339.02 873.443C1339.02 876.105 1341.17 878.264 1343.84 878.264Z" fill="#B5B5F7"/>
<path d="M1329.72 878.264C1332.38 878.264 1334.54 876.105 1334.54 873.443C1334.54 870.78 1332.38 868.622 1329.72 868.622C1327.05 868.622 1324.9 870.78 1324.9 873.443C1324.9 876.105 1327.05 878.264 1329.72 878.264Z" fill="#B5B5F7"/>
<path d="M384.464 635.966C383.449 635.966 382.63 635.147 382.63 634.132V600.27C382.63 599.255 383.449 598.436 384.464 598.436C385.478 598.436 386.297 599.255 386.297 600.27V634.132C386.297 635.147 385.478 635.966 384.464 635.966Z" fill="#9696EA"/>
<path d="M384.462 630.854C373.826 630.854 365.208 653.207 365.208 663.842V771.499H403.722V663.842C403.716 653.207 395.097 630.854 384.462 630.854Z" fill="#D6D4FF"/>
<path d="M384.463 647.633C371.866 647.633 361.652 657.847 361.652 670.444V722.827H407.274V670.444C407.274 657.847 397.061 647.633 384.463 647.633Z" fill="#B5B5F7"/>
<path d="M406.626 704.808H362.299C359.787 704.808 357.751 706.844 357.751 709.356V903.625H411.173V709.356C411.173 706.844 409.138 704.808 406.626 704.808Z" fill="#D6D4FF"/>
<path d="M401.657 669.307H367.268V674.295H401.657V669.307Z" fill="#9696EA"/>
<path d="M401.657 681.384H367.268V686.372H401.657V681.384Z" fill="#9696EA"/>
<path d="M401.657 693.464H367.268V698.451H401.657V693.464Z" fill="#9696EA"/>
<path d="M377.111 667.737H373.438V701.6H377.111V667.737Z" fill="#B5B5F7"/>
<path d="M386.298 667.737H382.625V701.6H386.298V667.737Z" fill="#B5B5F7"/>
<path d="M395.49 667.737H391.817V701.6H395.49V667.737Z" fill="#B5B5F7"/>
<path d="M377.101 715.144H373.428V903.624H377.101V715.144Z" fill="#B5B5F7"/>
<path d="M386.29 715.144H382.616V903.624H386.29V715.144Z" fill="#B5B5F7"/>
<path d="M400.995 903.626L404.668 903.626L404.668 715.145L400.995 715.145L400.995 903.626Z" fill="#B5B5F7"/>
<path d="M364.24 903.626L367.914 903.626L367.914 715.145L364.24 715.145L364.24 903.626Z" fill="#B5B5F7"/>
<path d="M395.484 715.144H391.811V903.624H395.484V715.144Z" fill="#B5B5F7"/>
<path d="M1206.13 835.236H1118.08V854.613H1206.13V835.236Z" fill="#D6D4FF"/>
<path d="M1183.19 825.267H1134.8V835.23H1183.19V825.267Z" fill="#B5B5F7"/>
<path d="M1177.4 829.21H1140.58V831.288H1177.4V829.21Z" fill="#D6D4FF"/>
<path d="M1206.46 854.754H1118V909.304H1206.46V854.754Z" fill="#B5B5F7"/>
<path d="M1156.77 864.337H1125.61V891.873H1156.77V864.337Z" fill="#D6D4FF"/>
<path d="M1128.76 867.489V888.717H1153.61V867.489H1128.76Z" fill="#9696EA"/>
<path d="M1195.06 864.337H1165.97V899.538H1195.06V864.337Z" fill="#D6D4FF"/>
<path d="M1178.96 868.132H1169.57V891.756H1178.96V868.132Z" fill="#9696EA"/>
<path d="M1182.07 891.759L1191.46 891.759L1191.46 868.135L1182.07 868.135L1182.07 891.759Z" fill="#9696EA"/>
<path d="M1138.17 835.234H1136.95V854.611H1138.17V835.234Z" fill="#9696EA"/>
<path d="M1155.59 835.235H1154.37V854.612H1155.59V835.235Z" fill="#9696EA"/>
<path d="M1173 835.235H1171.78V854.611H1173V835.235Z" fill="#9696EA"/>
<path d="M1190.42 835.235H1189.2V854.612H1190.42V835.235Z" fill="#9696EA"/>
<path d="M473.248 533.895L470.625 613.323H477.725L475.102 533.895C475.066 532.702 473.284 532.702 473.248 533.895Z" fill="#B5B5F7"/>
<path d="M479.517 637.182L478.712 613.332H469.64L468.835 637.182H479.517Z" fill="#B5B5F7"/>
<path d="M467.452 682.322H480.91C490.913 679.41 498.23 670.176 498.23 659.232C498.23 649.365 492.279 640.89 483.777 637.182H464.585C456.083 640.89 450.132 649.365 450.132 659.232C450.123 670.185 457.44 679.41 467.452 682.322Z" fill="#9696EA"/>
<path d="M469.713 617.882H478.639C485.278 615.947 490.135 609.824 490.135 602.561C490.135 596.013 486.192 590.388 480.539 587.927H467.804C462.161 590.388 458.208 596.013 458.208 602.561C458.217 609.824 463.065 615.947 469.713 617.882Z" fill="#D6D4FF"/>
<path d="M483.667 611.841H478.945C470.769 611.841 463.724 605.591 463.272 597.415C463.253 597.117 463.244 596.818 463.244 596.511C463.244 594.051 463.805 591.717 464.8 589.637C460.811 592.54 458.216 597.234 458.216 602.543C458.216 609.806 463.073 615.938 469.711 617.864H478.638C483.024 616.589 486.624 613.469 488.569 609.408C487.104 610.493 485.457 611.325 483.667 611.841Z" fill="#B5B5F7"/>
<path d="M483.779 637.182H482.486C486.962 641.55 489.748 647.637 489.748 654.384C489.748 664.984 482.893 673.974 473.369 677.176C472.745 677.384 472.094 677.475 471.433 677.475H459.956C459.386 677.475 458.816 677.393 458.265 677.239C460.888 679.555 463.999 681.328 467.454 682.322H480.912C490.915 679.41 498.232 670.176 498.232 659.232C498.223 649.365 492.281 640.89 483.779 637.182Z" fill="#9696EA"/>
<path d="M462.15 911.336L467.45 682.322H480.899L486.199 911.336H462.15Z" fill="#B5B5F7"/>
<path d="M467.452 682.322H480.91C490.913 679.41 498.23 670.176 498.23 659.232C498.23 649.365 492.279 640.89 483.777 637.182H464.585C456.083 640.89 450.132 649.365 450.132 659.232C450.123 670.185 457.44 679.41 467.452 682.322Z" fill="#D6D4FF"/>
<path d="M487.151 674.454H479.951C467.57 674.454 456.997 664.903 456.4 652.531C456.382 652.142 456.373 651.753 456.373 651.364C456.373 647.529 457.286 643.902 458.887 640.683C453.542 645.096 450.132 651.762 450.132 659.233C450.132 670.176 457.449 679.411 467.452 682.323H480.91C487.404 680.433 492.74 675.874 495.707 669.932C493.22 671.976 490.325 673.532 487.151 674.454Z" fill="#B5B5F7"/>
<path d="M479.53 555.007H468.84V561.41H479.53V555.007Z" fill="#B5B5F7"/>
<path d="M484.169 689.965H464.18V696.369H484.169V689.965Z" fill="#B5B5F7"/>
<path d="M484.169 705.351H464.18V711.755H484.169V705.351Z" fill="#B5B5F7"/>
<path d="M46.1921 606.546H3.00002L3 913.888H46.192L46.1921 606.546Z" fill="#B5B5F7"/>
<path d="M116.878 606.546H45.323V914.655H116.878V606.546Z" fill="#D6D4FF"/>
<path d="M63.0088 619.893H53.8095V885.906H63.0088V619.893Z" fill="#B5B5F7"/>
<path d="M84.4748 619.893H76.0422V885.906H84.4748V619.893Z" fill="#B5B5F7"/>
<path d="M105.938 619.893H97.5049V885.906H105.938V619.893Z" fill="#B5B5F7"/>
<path d="M45.3215 593.515H13.2278V606.546H45.3215V593.515Z" fill="#B5B5F7"/>
<path d="M45.3261 606.546L106.138 606.546L106.138 593.516L45.3261 593.516L45.3261 606.546Z" fill="#B5B5F7"/>
<path d="M102.453 593.514L96.8591 574.362L81.0506 559.412L60.1125 554.683L39.1807 559.412L23.3722 574.362L17.7722 593.514H102.453Z" fill="#D6D4FF"/>
<path d="M23.8261 575.091L23.0898 576.127L48.2835 594.028L49.0199 592.991L23.8261 575.091Z" fill="#B5B5F7"/>
<path d="M96.3995 575.119L71.2057 593.019L71.942 594.055L97.1358 576.155L96.3995 575.119Z" fill="#B5B5F7"/>
<path d="M39.7816 559.25L38.5567 559.59L48.0278 593.691L49.2527 593.351L39.7816 559.25Z" fill="#B5B5F7"/>
<path d="M80.4296 559.244L70.9586 593.344L72.1834 593.685L81.6545 559.584L80.4296 559.244Z" fill="#B5B5F7"/>
<path d="M59.5184 554.49L48.0515 593.324L49.2708 593.684L60.7377 554.85L59.5184 554.49Z" fill="#B5B5F7"/>
<path d="M60.7354 554.505L59.5161 554.865L70.9789 593.699L72.1982 593.339L60.7354 554.505Z" fill="#B5B5F7"/>
<path d="M211.122 744.695H138.391V806.937H211.122V744.695Z" fill="#9696EA"/>
<path d="M209.598 806.399C197.276 802.481 189.403 790.452 190.729 777.591C191.713 768.087 184.256 759.823 174.703 759.823C165.149 759.823 157.698 768.087 158.676 777.591C160.009 790.452 152.13 802.481 139.807 806.399L138.285 806.882V903.622H211.108V806.882L209.598 806.399Z" fill="#B5B5F7"/>
<path d="M174.709 782.493C171.671 782.493 169.214 784.957 169.214 787.988V801.949H180.204V787.988C180.204 784.951 177.746 782.493 174.709 782.493Z" fill="#9696EA"/>
<path d="M159.25 870.767H148.944V886.91H159.25V870.767Z" fill="#9696EA"/>
<path d="M179.862 870.767H169.556V886.91H179.862V870.767Z" fill="#9696EA"/>
<path d="M200.473 870.767H190.168V886.91H200.473V870.767Z" fill="#9696EA"/>
<path d="M159.25 838.733H148.944V854.876H159.25V838.733Z" fill="#9696EA"/>
<path d="M179.862 838.733H169.556V854.876H179.862V838.733Z" fill="#9696EA"/>
<path d="M200.473 838.733H190.168V854.876H200.473V838.733Z" fill="#9696EA"/>
<path d="M256.717 806.778H211.119V903.622H256.717V806.778Z" fill="#9696EA"/>
<path d="M227.734 776.064H220.307V783.49H227.734V776.064Z" fill="#9696EA"/>
<path d="M240.104 783.494L247.531 783.494L247.531 776.067L240.104 776.067L240.104 783.494Z" fill="#9696EA"/>
<path d="M254.901 783.282H211.119V806.937H256.717L254.901 783.282Z" fill="#B5B5F7"/>
<path d="M223.127 822.151C219.295 822.151 216.184 825.256 216.184 829.095V843.905H230.065V829.095C230.071 825.263 226.96 822.151 223.127 822.151Z" fill="#B5B5F7"/>
<path d="M223.127 859.082C219.295 859.082 216.184 862.187 216.184 866.026V880.836H230.065V866.026C230.071 862.193 226.96 859.082 223.127 859.082Z" fill="#B5B5F7"/>
<path d="M243.491 822.151C239.658 822.151 236.547 825.256 236.547 829.094V843.904H250.428V829.094C250.428 825.262 247.323 822.151 243.491 822.151Z" fill="#B5B5F7"/>
<path d="M243.491 859.081C239.658 859.081 236.547 862.186 236.547 866.025V880.835H250.428V866.025C250.428 862.192 247.323 859.081 243.491 859.081Z" fill="#B5B5F7"/>
<path d="M330.903 733.265H254.902V775H330.903V733.265Z" fill="#9696EA"/>
<path d="M321.497 761.956H317.86V754.133H305.58C305.598 753.864 305.623 753.595 305.623 753.32C305.623 746.297 299.932 740.606 292.909 740.606C285.886 740.606 280.195 746.297 280.195 753.32C280.195 753.595 280.22 753.864 280.238 754.133H267.946V761.956H254.902V903.592H330.903V761.956H321.497Z" fill="#B5B5F7"/>
<path d="M288.911 783.606H278.605V799.749H288.911V783.606Z" fill="#9696EA"/>
<path d="M309.515 783.606H299.21V799.748H309.515V783.606Z" fill="#9696EA"/>
<path d="M288.913 811.655H278.607V827.797H288.913V811.655Z" fill="#9696EA"/>
<path d="M309.517 811.654H299.211V827.797H309.517V811.654Z" fill="#9696EA"/>
<path d="M288.913 839.699H278.607V855.841H288.913V839.699Z" fill="#9696EA"/>
<path d="M309.517 839.698H299.211V855.841H309.517V839.698Z" fill="#9696EA"/>
<path d="M1307.31 467.979C1308.17 462.878 1305.71 457.587 1300.86 455.099C1296.01 452.604 1290.28 453.678 1286.63 457.345L1307.31 467.979Z" fill="#9696EA"/>
<path d="M1307.31 467.979C1306.46 462.878 1308.92 457.587 1313.77 455.099C1318.62 452.604 1324.35 453.678 1328 457.345L1307.31 467.979Z" fill="#9696EA"/>
<path d="M1261.69 450.233C1262.54 445.132 1260.08 439.841 1255.23 437.353C1250.38 434.858 1244.65 435.932 1241 439.599L1261.69 450.233Z" fill="#9696EA"/>
<path d="M1261.69 450.233C1260.83 445.132 1263.29 439.841 1268.14 437.353C1272.99 434.858 1278.72 435.932 1282.37 439.599L1261.69 450.233Z" fill="#9696EA"/>
<path d="M204.056 689C203.68 686.767 204.758 684.45 206.883 683.361C209.004 682.269 211.515 682.739 213.112 684.344L204.056 689Z" fill="#9696EA"/>
<path d="M204.056 689C204.431 686.767 203.353 684.45 201.229 683.361C199.108 682.269 196.597 682.739 195 684.344L204.056 689Z" fill="#9696EA"/>
<path d="M224.031 681.231C223.656 678.998 224.733 676.682 226.858 675.592C228.979 674.5 231.49 674.97 233.087 676.576L224.031 681.231Z" fill="#9696EA"/>
<path d="M224.031 681.231C224.407 678.998 223.329 676.682 221.204 675.592C219.083 674.5 216.572 674.97 214.975 676.576L224.031 681.231Z" fill="#9696EA"/>
</g>
</svg>
