<svg width="390" height="844" viewBox="0 0 390 844" fill="none" xmlns="http://www.w3.org/2000/svg">
<g clip-path="url(#clip0_51_5398)">
<rect width="390" height="844" fill="white"/>
<path d="M687 0H-441V716H687V0Z" fill="#F5EFFF"/>
<path d="M105.273 568.603V548.798H78.5714V528.988H23.2031V736.194H49.9002V756.004H76.6022V775.813H131.971V568.603H105.273Z" fill="#DEDEF9"/>
<path d="M68.2384 545.961H34.3711V547.691H68.2384V545.961Z" fill="#F5EFFF"/>
<path d="M68.2384 574.891H34.3711V576.621H68.2384V574.891Z" fill="#F5EFFF"/>
<path d="M68.2384 603.82H34.3711V605.551H68.2384V603.82Z" fill="#F5EFFF"/>
<path d="M114.779 577.85H109.383V583.246H114.779V577.85Z" fill="#F5EFFF"/>
<path d="M125.892 577.85H120.496V583.246H125.892V577.85Z" fill="#F5EFFF"/>
<path d="M114.779 591.775H109.383V597.171H114.779V591.775Z" fill="#F5EFFF"/>
<path d="M125.892 591.775H120.496V597.171H125.892V591.775Z" fill="#F5EFFF"/>
<path d="M114.779 605.707H109.383V611.103H114.779V605.707Z" fill="#F5EFFF"/>
<path d="M125.892 605.707H120.496V611.103H125.892V605.707Z" fill="#F5EFFF"/>
<path d="M114.779 619.638H109.383V625.034H114.779V619.638Z" fill="#F5EFFF"/>
<path d="M125.892 619.638H120.496V625.034H125.892V619.638Z" fill="#F5EFFF"/>
<path d="M114.779 633.564H109.383V638.96H114.779V633.564Z" fill="#F5EFFF"/>
<path d="M125.892 633.564H120.496V638.96H125.892V633.564Z" fill="#F5EFFF"/>
<path d="M114.779 647.495H109.383V652.891H114.779V647.495Z" fill="#F5EFFF"/>
<path d="M125.892 647.495H120.496V652.891H125.892V647.495Z" fill="#F5EFFF"/>
<path d="M114.779 661.426H109.383V666.822H114.779V661.426Z" fill="#F5EFFF"/>
<path d="M125.892 661.426H120.496V666.822H125.892V661.426Z" fill="#F5EFFF"/>
<path d="M114.779 675.353H109.383V680.748H114.779V675.353Z" fill="#F5EFFF"/>
<path d="M125.892 675.353H120.496V680.748H125.892V675.353Z" fill="#F5EFFF"/>
<path d="M114.779 689.283H109.383V694.679H114.779V689.283Z" fill="#F5EFFF"/>
<path d="M125.892 689.283H120.496V694.679H125.892V689.283Z" fill="#F5EFFF"/>
<path d="M360.693 461.155V591.853H341.78V518.634H297.189V693.172H415.238V461.155H360.693Z" fill="#DEDEF9"/>
<path d="M309.025 526.112H305.734V640.622H309.025V526.112Z" fill="#F5EFFF"/>
<path d="M317.247 526.112H313.957V640.622H317.247V526.112Z" fill="#F5EFFF"/>
<path d="M333.698 526.112H330.408V640.622H333.698V526.112Z" fill="#F5EFFF"/>
<path d="M325.476 526.112H322.186V640.622H325.476V526.112Z" fill="#F5EFFF"/>
<path d="M404.629 473.347H372.521V478.002H404.629V473.347Z" fill="#F5EFFF"/>
<path d="M404.629 486.005H372.521V490.66H404.629V486.005Z" fill="#F5EFFF"/>
<path d="M404.629 498.659H372.521V503.314H404.629V498.659Z" fill="#F5EFFF"/>
<path d="M404.629 511.312H372.521V515.968H404.629V511.312Z" fill="#F5EFFF"/>
<path d="M404.629 523.972H372.521V528.627H404.629V523.972Z" fill="#F5EFFF"/>
<path d="M404.629 536.626H372.521V541.281H404.629V536.626Z" fill="#F5EFFF"/>
<path d="M404.629 549.279H372.521V553.934H404.629V549.279Z" fill="#F5EFFF"/>
<path d="M404.629 561.938H372.521V566.594H404.629V561.938Z" fill="#F5EFFF"/>
<path d="M404.629 574.592H372.521V579.247H404.629V574.592Z" fill="#F5EFFF"/>
<path d="M381.709 471.879H378.277V590.483H381.709V471.879Z" fill="#DEDEF9"/>
<path d="M390.287 471.879H386.855V590.483H390.287V471.879Z" fill="#DEDEF9"/>
<path d="M300.079 629.483H272.826V645.155H300.079V629.483Z" fill="#DEDEF9"/>
<path d="M152.551 690.857V593.812H251.369V550.211L284.004 563.445V690.857H152.551Z" fill="#DEDEF9"/>
<path d="M414.891 397.862C411.44 396.643 407.618 395.926 404.981 393.387C400.853 389.409 401.277 382.697 398.654 377.604C395.857 372.164 389.593 369.049 383.476 368.937C377.358 368.825 371.431 371.345 366.42 374.854C364.392 376.278 362.194 377.959 359.503 376.629C358.636 376.2 357.919 375.517 357.373 374.718C355.755 372.344 355.623 369.483 354.834 366.826C352.265 358.179 342.687 352.924 333.669 353.266C324.656 353.607 316.36 358.511 309.755 364.652C304.788 369.268 300.543 374.655 297.194 380.553C295.244 383.989 291.125 385.68 287.362 384.481C282.073 382.8 275.537 384.116 270.896 387.513C270.331 387.928 269.785 388.366 269.259 388.82C266.124 391.535 262.069 392.895 257.93 392.661C257.263 392.622 256.585 392.602 255.903 392.602C245.004 392.602 235.947 397.496 234.08 403.94H422.139C421.174 400.947 417.967 398.953 414.891 397.862Z" fill="#FBF9FF"/>
<path d="M-45.6812 303.563C-43.1487 302.674 -40.3445 302.151 -38.4094 300.297C-35.3797 297.394 -35.6909 292.494 -33.7666 288.776C-31.7134 284.806 -27.1171 282.532 -22.6281 282.45C-18.1391 282.368 -13.7896 284.208 -10.1126 286.77C-8.6246 287.809 -7.0114 289.036 -5.03696 288.065C-4.40027 287.752 -3.87447 287.254 -3.47386 286.67C-2.28633 284.937 -2.18977 282.849 -1.61031 280.91C0.274712 274.598 7.30332 270.762 13.9206 271.011C20.5342 271.26 26.6221 274.84 31.4688 279.323C35.1136 282.692 38.2291 286.624 40.6864 290.929C42.1172 293.437 45.1397 294.672 47.901 293.797C51.782 292.569 56.5785 293.53 59.9837 296.01C60.3987 296.312 60.7993 296.632 61.1856 296.963C63.4855 298.945 66.4615 299.938 69.4983 299.767C69.9883 299.738 70.4855 299.724 70.9863 299.724C78.9842 299.724 85.6301 303.296 87 308H-51C-50.2918 305.815 -47.9382 304.36 -45.6812 303.563Z" fill="#FBF9FF"/>
<path d="M336.549 545.937H302.691V548.964H336.549V545.937Z" fill="#DEDEF9"/>
<path d="M336.549 577.133H302.691V580.16H336.549V577.133Z" fill="#DEDEF9"/>
<path d="M336.549 608.328H302.691V611.355H336.549V608.328Z" fill="#DEDEF9"/>
<path d="M336.549 639.524H302.691V642.551H336.549V639.524Z" fill="#DEDEF9"/>
<path d="M208.482 542.068L208.482 538.643L185.179 538.643L185.179 542.068L208.482 542.068Z" fill="#D6D4FF"/>
<path d="M185.175 552.822L208.479 552.822L208.479 542.068L185.175 542.068L185.175 552.822Z" fill="#B5B5F7"/>
<path d="M206.208 521.773H208.481V538.644H192.404L206.208 521.773Z" fill="#B5B5F7"/>
<path d="M231.783 542.07L231.783 538.645L208.48 538.645L208.48 542.07L231.783 542.07Z" fill="#D6D4FF"/>
<path d="M231.784 542.065H208.48V552.82H231.784V542.065Z" fill="#9696EA"/>
<path d="M210.753 521.773H208.48V538.644H224.557L210.753 521.773Z" fill="#9696EA"/>
<path d="M177.599 689.04L208.482 689.04L208.482 552.776L177.599 552.776L177.599 689.04Z" fill="#D6D4FF"/>
<path d="M239.364 552.777H208.48V689.042H239.364V552.777Z" fill="#B5B5F7"/>
<path d="M208.483 566.577L221.543 566.577L221.543 561.353L208.483 561.353L208.483 566.577Z" fill="#9696EA"/>
<path d="M226.448 566.581C227.89 566.581 229.06 565.412 229.06 563.969C229.06 562.527 227.89 561.357 226.448 561.357C225.005 561.357 223.836 562.527 223.836 563.969C223.836 565.412 225.005 566.581 226.448 566.581Z" fill="#9696EA"/>
<path d="M234.098 566.581C235.541 566.581 236.71 565.412 236.71 563.969C236.71 562.527 235.541 561.357 234.098 561.357C232.656 561.357 231.486 562.527 231.486 563.969C231.486 565.412 232.656 566.581 234.098 566.581Z" fill="#9696EA"/>
<path d="M208.483 579.163L221.543 579.163L221.543 573.939L208.483 573.939L208.483 579.163Z" fill="#9696EA"/>
<path d="M226.448 579.162C227.89 579.162 229.06 577.993 229.06 576.55C229.06 575.108 227.89 573.938 226.448 573.938C225.005 573.938 223.836 575.108 223.836 576.55C223.836 577.993 225.005 579.162 226.448 579.162Z" fill="#9696EA"/>
<path d="M234.098 579.162C235.541 579.162 236.71 577.993 236.71 576.55C236.71 575.108 235.541 573.938 234.098 573.938C232.656 573.938 231.486 575.108 231.486 576.55C231.486 577.993 232.656 579.162 234.098 579.162Z" fill="#9696EA"/>
<path d="M208.483 591.745L221.543 591.745L221.543 586.521L208.483 586.521L208.483 591.745Z" fill="#9696EA"/>
<path d="M226.448 591.748C227.89 591.748 229.06 590.579 229.06 589.136C229.06 587.694 227.89 586.524 226.448 586.524C225.005 586.524 223.836 587.694 223.836 589.136C223.836 590.579 225.005 591.748 226.448 591.748Z" fill="#9696EA"/>
<path d="M234.098 591.748C235.541 591.748 236.71 590.579 236.71 589.136C236.71 587.694 235.541 586.524 234.098 586.524C232.656 586.524 231.486 587.694 231.486 589.136C231.486 590.579 232.656 591.748 234.098 591.748Z" fill="#9696EA"/>
<path d="M208.483 604.331L221.543 604.331L221.543 599.107L208.483 599.107L208.483 604.331Z" fill="#9696EA"/>
<path d="M226.448 604.329C227.89 604.329 229.06 603.16 229.06 601.717C229.06 600.275 227.89 599.105 226.448 599.105C225.005 599.105 223.836 600.275 223.836 601.717C223.836 603.16 225.005 604.329 226.448 604.329Z" fill="#9696EA"/>
<path d="M234.098 604.329C235.541 604.329 236.71 603.16 236.71 601.717C236.71 600.275 235.541 599.105 234.098 599.105C232.656 599.105 231.486 600.275 231.486 601.717C231.486 603.16 232.656 604.329 234.098 604.329Z" fill="#9696EA"/>
<path d="M208.483 616.912L221.543 616.912L221.543 611.688L208.483 611.688L208.483 616.912Z" fill="#9696EA"/>
<path d="M226.448 616.915C227.89 616.915 229.06 615.746 229.06 614.303C229.06 612.861 227.89 611.691 226.448 611.691C225.005 611.691 223.836 612.861 223.836 614.303C223.836 615.746 225.005 616.915 226.448 616.915Z" fill="#9696EA"/>
<path d="M234.098 616.915C235.541 616.915 236.71 615.746 236.71 614.303C236.71 612.861 235.541 611.691 234.098 611.691C232.656 611.691 231.486 612.861 231.486 614.303C231.486 615.746 232.656 616.915 234.098 616.915Z" fill="#9696EA"/>
<path d="M208.483 629.498L221.543 629.498L221.543 624.274L208.483 624.274L208.483 629.498Z" fill="#9696EA"/>
<path d="M226.448 629.496C227.89 629.496 229.06 628.327 229.06 626.884C229.06 625.442 227.89 624.272 226.448 624.272C225.005 624.272 223.836 625.442 223.836 626.884C223.836 628.327 225.005 629.496 226.448 629.496Z" fill="#9696EA"/>
<path d="M234.098 629.496C235.541 629.496 236.71 628.327 236.71 626.884C236.71 625.442 235.541 624.272 234.098 624.272C232.656 624.272 231.486 625.442 231.486 626.884C231.486 628.327 232.656 629.496 234.098 629.496Z" fill="#9696EA"/>
<path d="M208.483 642.079L221.543 642.079L221.543 636.855L208.483 636.855L208.483 642.079Z" fill="#9696EA"/>
<path d="M226.448 642.082C227.89 642.082 229.06 640.913 229.06 639.47C229.06 638.028 227.89 636.858 226.448 636.858C225.005 636.858 223.836 638.028 223.836 639.47C223.836 640.913 225.005 642.082 226.448 642.082Z" fill="#9696EA"/>
<path d="M234.098 642.082C235.541 642.082 236.71 640.913 236.71 639.47C236.71 638.028 235.541 636.858 234.098 636.858C232.656 636.858 231.486 638.028 231.486 639.47C231.486 640.913 232.656 642.082 234.098 642.082Z" fill="#9696EA"/>
<path d="M208.483 679.833L221.543 679.833L221.543 674.609L208.483 674.609L208.483 679.833Z" fill="#9696EA"/>
<path d="M226.448 679.83C227.89 679.83 229.06 678.661 229.06 677.218C229.06 675.776 227.89 674.606 226.448 674.606C225.005 674.606 223.836 675.776 223.836 677.218C223.836 678.661 225.005 679.83 226.448 679.83Z" fill="#9696EA"/>
<path d="M234.098 679.83C235.541 679.83 236.71 678.661 236.71 677.218C236.71 675.776 235.541 674.606 234.098 674.606C232.656 674.606 231.486 675.776 231.486 677.218C231.486 678.661 232.656 679.83 234.098 679.83Z" fill="#9696EA"/>
<path d="M208.483 667.247L221.543 667.247L221.543 662.023L208.483 662.023L208.483 667.247Z" fill="#9696EA"/>
<path d="M226.448 667.249C227.89 667.249 229.06 666.08 229.06 664.637C229.06 663.195 227.89 662.025 226.448 662.025C225.005 662.025 223.836 663.195 223.836 664.637C223.836 666.08 225.005 667.249 226.448 667.249Z" fill="#9696EA"/>
<path d="M234.098 667.249C235.541 667.249 236.71 666.08 236.71 664.637C236.71 663.195 235.541 662.025 234.098 662.025C232.656 662.025 231.486 663.195 231.486 664.637C231.486 666.08 232.656 667.249 234.098 667.249Z" fill="#9696EA"/>
<path d="M208.483 654.665L221.543 654.665L221.543 649.441L208.483 649.441L208.483 654.665Z" fill="#9696EA"/>
<path d="M226.448 654.663C227.89 654.663 229.06 653.494 229.06 652.051C229.06 650.609 227.89 649.439 226.448 649.439C225.005 649.439 223.836 650.609 223.836 652.051C223.836 653.494 225.005 654.663 226.448 654.663Z" fill="#9696EA"/>
<path d="M234.098 654.663C235.541 654.663 236.71 653.494 236.71 652.051C236.71 650.609 235.541 649.439 234.098 649.439C232.656 649.439 231.486 650.609 231.486 652.051C231.486 653.494 232.656 654.663 234.098 654.663Z" fill="#9696EA"/>
<path d="M208.48 561.357H195.42V566.581H208.48V561.357Z" fill="#B5B5F7"/>
<path d="M190.512 566.581C191.955 566.581 193.124 565.412 193.124 563.969C193.124 562.527 191.955 561.357 190.512 561.357C189.07 561.357 187.9 562.527 187.9 563.969C187.9 565.412 189.07 566.581 190.512 566.581Z" fill="#B5B5F7"/>
<path d="M182.862 566.581C184.305 566.581 185.474 565.412 185.474 563.969C185.474 562.527 184.305 561.357 182.862 561.357C181.419 561.357 180.25 562.527 180.25 563.969C180.25 565.412 181.419 566.581 182.862 566.581Z" fill="#B5B5F7"/>
<path d="M208.48 573.938H195.42V579.162H208.48V573.938Z" fill="#B5B5F7"/>
<path d="M190.512 579.162C191.955 579.162 193.124 577.993 193.124 576.55C193.124 575.108 191.955 573.938 190.512 573.938C189.07 573.938 187.9 575.108 187.9 576.55C187.9 577.993 189.07 579.162 190.512 579.162Z" fill="#B5B5F7"/>
<path d="M182.862 579.162C184.305 579.162 185.474 577.993 185.474 576.55C185.474 575.108 184.305 573.938 182.862 573.938C181.419 573.938 180.25 575.108 180.25 576.55C180.25 577.993 181.419 579.162 182.862 579.162Z" fill="#B5B5F7"/>
<path d="M208.48 586.524H195.42V591.748H208.48V586.524Z" fill="#B5B5F7"/>
<path d="M190.512 591.748C191.955 591.748 193.124 590.579 193.124 589.136C193.124 587.694 191.955 586.524 190.512 586.524C189.07 586.524 187.9 587.694 187.9 589.136C187.9 590.579 189.07 591.748 190.512 591.748Z" fill="#B5B5F7"/>
<path d="M182.862 591.748C184.305 591.748 185.474 590.579 185.474 589.136C185.474 587.694 184.305 586.524 182.862 586.524C181.419 586.524 180.25 587.694 180.25 589.136C180.25 590.579 181.419 591.748 182.862 591.748Z" fill="#B5B5F7"/>
<path d="M208.48 599.105H195.42V604.329H208.48V599.105Z" fill="#B5B5F7"/>
<path d="M190.512 604.329C191.955 604.329 193.124 603.16 193.124 601.717C193.124 600.275 191.955 599.105 190.512 599.105C189.07 599.105 187.9 600.275 187.9 601.717C187.9 603.16 189.07 604.329 190.512 604.329Z" fill="#B5B5F7"/>
<path d="M182.862 604.329C184.305 604.329 185.474 603.16 185.474 601.717C185.474 600.275 184.305 599.105 182.862 599.105C181.419 599.105 180.25 600.275 180.25 601.717C180.25 603.16 181.419 604.329 182.862 604.329Z" fill="#B5B5F7"/>
<path d="M208.48 611.691H195.42V616.915H208.48V611.691Z" fill="#B5B5F7"/>
<path d="M190.512 616.915C191.955 616.915 193.124 615.746 193.124 614.303C193.124 612.861 191.955 611.691 190.512 611.691C189.07 611.691 187.9 612.861 187.9 614.303C187.9 615.746 189.07 616.915 190.512 616.915Z" fill="#B5B5F7"/>
<path d="M182.862 616.915C184.305 616.915 185.474 615.746 185.474 614.303C185.474 612.861 184.305 611.691 182.862 611.691C181.419 611.691 180.25 612.861 180.25 614.303C180.25 615.746 181.419 616.915 182.862 616.915Z" fill="#B5B5F7"/>
<path d="M208.48 624.272H195.42V629.496H208.48V624.272Z" fill="#B5B5F7"/>
<path d="M190.512 629.496C191.955 629.496 193.124 628.327 193.124 626.884C193.124 625.442 191.955 624.272 190.512 624.272C189.07 624.272 187.9 625.442 187.9 626.884C187.9 628.327 189.07 629.496 190.512 629.496Z" fill="#B5B5F7"/>
<path d="M182.862 629.496C184.305 629.496 185.474 628.327 185.474 626.884C185.474 625.442 184.305 624.272 182.862 624.272C181.419 624.272 180.25 625.442 180.25 626.884C180.25 628.327 181.419 629.496 182.862 629.496Z" fill="#B5B5F7"/>
<path d="M208.48 636.858H195.42V642.082H208.48V636.858Z" fill="#B5B5F7"/>
<path d="M190.512 642.082C191.955 642.082 193.124 640.913 193.124 639.47C193.124 638.028 191.955 636.858 190.512 636.858C189.07 636.858 187.9 638.028 187.9 639.47C187.9 640.913 189.07 642.082 190.512 642.082Z" fill="#B5B5F7"/>
<path d="M182.862 642.082C184.305 642.082 185.474 640.913 185.474 639.47C185.474 638.028 184.305 636.858 182.862 636.858C181.419 636.858 180.25 638.028 180.25 639.47C180.25 640.913 181.419 642.082 182.862 642.082Z" fill="#B5B5F7"/>
<path d="M208.48 674.606H195.42V679.83H208.48V674.606Z" fill="#B5B5F7"/>
<path d="M190.512 679.83C191.955 679.83 193.124 678.661 193.124 677.218C193.124 675.776 191.955 674.606 190.512 674.606C189.07 674.606 187.9 675.776 187.9 677.218C187.9 678.661 189.07 679.83 190.512 679.83Z" fill="#B5B5F7"/>
<path d="M182.862 679.83C184.305 679.83 185.474 678.661 185.474 677.218C185.474 675.776 184.305 674.606 182.862 674.606C181.419 674.606 180.25 675.776 180.25 677.218C180.25 678.661 181.419 679.83 182.862 679.83Z" fill="#B5B5F7"/>
<path d="M208.48 662.025H195.42V667.249H208.48V662.025Z" fill="#B5B5F7"/>
<path d="M190.512 667.249C191.955 667.249 193.124 666.08 193.124 664.637C193.124 663.195 191.955 662.025 190.512 662.025C189.07 662.025 187.9 663.195 187.9 664.637C187.9 666.08 189.07 667.249 190.512 667.249Z" fill="#B5B5F7"/>
<path d="M182.862 667.249C184.305 667.249 185.474 666.08 185.474 664.637C185.474 663.195 184.305 662.025 182.862 662.025C181.419 662.025 180.25 663.195 180.25 664.637C180.25 666.08 181.419 667.249 182.862 667.249Z" fill="#B5B5F7"/>
<path d="M208.48 649.439H195.42V654.663H208.48V649.439Z" fill="#B5B5F7"/>
<path d="M190.512 654.663C191.955 654.663 193.124 653.494 193.124 652.051C193.124 650.609 191.955 649.439 190.512 649.439C189.07 649.439 187.9 650.609 187.9 652.051C187.9 653.494 189.07 654.663 190.512 654.663Z" fill="#B5B5F7"/>
<path d="M182.862 654.663C184.305 654.663 185.474 653.494 185.474 652.051C185.474 650.609 184.305 649.439 182.862 649.439C181.419 649.439 180.25 650.609 180.25 652.051C180.25 653.494 181.419 654.663 182.862 654.663Z" fill="#B5B5F7"/>
<path d="M309.608 632.013H239.393V647.465H309.608V632.013Z" fill="#D6D4FF"/>
<path d="M291.309 624.062H252.719V632.008H291.309V624.062Z" fill="#B5B5F7"/>
<path d="M286.692 627.206H257.334V628.863H286.692V627.206Z" fill="#D6D4FF"/>
<path d="M309.87 647.577H239.326V691.079H309.87V647.577Z" fill="#B5B5F7"/>
<path d="M270.242 655.22H245.393V677.179H270.242V655.22Z" fill="#D6D4FF"/>
<path d="M247.906 657.732V674.661H267.726V657.732H247.906Z" fill="#9696EA"/>
<path d="M300.78 655.22H277.578V683.291H300.78V655.22Z" fill="#D6D4FF"/>
<path d="M287.94 658.247H280.453V677.087H287.94V658.247Z" fill="#9696EA"/>
<path d="M290.419 677.089L297.906 677.089L297.906 658.249L290.419 658.249L290.419 677.089Z" fill="#9696EA"/>
<path d="M255.41 632.013H254.436V647.465H255.41V632.013Z" fill="#9696EA"/>
<path d="M269.303 632.013H268.328V647.465H269.303V632.013Z" fill="#9696EA"/>
<path d="M283.19 632.013H282.215V647.465H283.19V632.013Z" fill="#9696EA"/>
<path d="M297.082 632.013H296.107V647.465H297.082V632.013Z" fill="#9696EA"/>
<path d="M716.133 683.437H-471.197V802.476H716.133V683.437Z" fill="#5A4C7F"/>
<path d="M719.133 667L-473 693.563V703.175L719.133 676.611V667Z" fill="#10002B"/>
<path d="M16.9948 671.53L16.8115 666.817C16.7957 666.411 16.3944 666.113 15.9743 666.26C15.7162 666.35 15.5651 666.615 15.5757 666.887L15.7581 671.578L16.9948 671.53Z" fill="#10002B"/>
<path d="M96.5331 696.298C96.169 696.312 95.7959 696.237 95.4466 696.059L18.9315 657.361C17.8384 656.808 17.3996 655.472 17.9526 654.376C18.5057 653.283 19.8414 652.844 20.9373 653.397L97.4524 692.095C98.5455 692.648 98.9844 693.984 98.4314 695.08C98.054 695.827 97.3141 696.267 96.5331 696.298Z" fill="#10002B"/>
<path d="M21.2478 646.076L15.3086 646.307L16.0952 666.534L22.0343 666.303C26.9035 666.113 30.6965 662.014 30.5072 657.144L30.4064 654.551C30.2197 649.679 26.117 645.886 21.2478 646.076Z" fill="#4A0FC7"/>
<path d="M15.3118 646.307C10.4426 646.496 6.64956 650.596 6.83891 655.465L6.93974 658.058C7.12909 662.927 11.229 666.72 16.0982 666.531C20.9674 666.342 24.7604 662.242 24.5711 657.372L24.4702 654.779C24.2809 649.91 20.1809 646.117 15.3118 646.307Z" fill="#D6D4FF"/>
<path d="M15.9435 662.59C13.256 662.694 10.9866 660.595 10.8821 657.907L10.7813 655.314C10.6767 652.627 12.7762 650.357 15.4637 650.253C18.1512 650.148 20.4207 652.248 20.5252 654.935L20.626 657.528C20.7304 660.213 18.631 662.485 15.9435 662.59Z" fill="#10002B"/>
<path d="M42.1123 695.838C41.1618 695.875 40.2597 695.295 39.9307 694.35C39.5266 693.191 40.1371 691.926 41.296 691.522L72.9559 680.463C74.1148 680.058 75.3799 680.669 75.7841 681.828C76.1882 682.987 75.5777 684.252 74.4188 684.656L42.7589 695.715C42.5447 695.79 42.3263 695.83 42.1123 695.838Z" fill="#10002B"/>
<path d="M27.6283 676.569C26.6806 676.606 25.7786 676.029 25.4469 675.087C25.0401 673.931 25.6477 672.663 26.8037 672.257L44.4401 666.048C45.5961 665.642 46.864 666.249 47.2708 667.405C47.6775 668.561 47.07 669.829 45.914 670.236L28.2775 676.444C28.0634 676.522 27.8451 676.561 27.6283 676.569Z" fill="#10002B"/>
<path d="M63.2528 729.431C62.5107 729.46 61.7681 729.116 61.3221 728.454L13.6201 657.671C12.9348 656.653 13.204 655.273 14.2212 654.588C15.2383 653.903 16.6182 654.172 17.3035 655.189L65.0054 725.973C65.6907 726.99 65.4215 728.37 64.4044 729.055C64.0519 729.295 63.653 729.416 63.2528 729.431Z" fill="#4A0FC7"/>
<path d="M65.0059 725.973L17.304 655.189C16.6688 654.245 15.4354 653.948 14.4475 654.457C14.721 654.619 14.9635 654.841 15.1526 655.123L62.8545 725.907C63.5398 726.924 63.2706 728.304 62.2535 728.989C62.1803 729.039 62.104 729.081 62.0276 729.12C62.3979 729.34 62.8226 729.451 63.2506 729.434C63.648 729.419 64.0495 729.295 64.4021 729.056C65.4248 728.37 65.6912 726.99 65.0059 725.973Z" fill="#7D2EFF"/>
<path d="M169.016 754.845C168.786 754.854 168.552 754.791 168.346 754.651L154.094 744.887C153.588 744.54 153.458 743.849 153.806 743.343C154.153 742.836 154.844 742.707 155.35 743.054L169.603 752.818C170.109 753.166 170.239 753.857 169.891 754.363C169.683 754.663 169.355 754.832 169.016 754.845Z" fill="#10002B"/>
<path d="M123.046 758.539C122.815 758.548 122.581 758.485 122.376 758.346L108.123 748.582C107.617 748.234 107.487 747.543 107.835 747.037C108.183 746.531 108.874 746.401 109.38 746.749L123.632 756.513C124.138 756.86 124.268 757.551 123.92 758.057C123.712 758.358 123.385 758.526 123.046 758.539Z" fill="#10002B"/>
<path d="M29.2428 762.187C29.0122 762.196 28.7787 762.133 28.5728 761.993L14.3206 752.229C13.8144 751.881 13.6846 751.191 14.0323 750.684C14.38 750.178 15.0708 750.048 15.577 750.396L29.8293 760.16C30.3354 760.508 30.4653 761.199 30.1176 761.705C29.9094 762.005 29.5819 762.174 29.2428 762.187Z" fill="#10002B"/>
<path d="M37.4487 747.817C37.1808 740.927 42.5686 735.106 49.4555 734.838C56.3451 734.571 62.166 739.958 62.4338 746.845L62.8125 756.584C63.0804 763.473 57.6926 769.294 50.8057 769.562L38.8885 770.025L37.4487 747.817Z" fill="#10002B"/>
<path d="M38.8907 770.026C32.0011 770.294 26.1802 764.906 25.9124 758.019L25.6264 750.665C25.3585 743.776 30.7463 737.955 37.6332 737.687C44.5229 737.419 50.3437 742.807 50.6116 749.694L50.8975 757.048C51.1653 763.935 45.7776 769.758 38.8907 770.026Z" fill="#10002B"/>
<path d="M177.658 742.365C177.39 735.475 182.778 729.654 189.664 729.386C196.554 729.118 202.375 734.506 202.643 741.393L203.021 751.131C203.289 758.021 197.902 763.842 191.015 764.11L179.097 764.573L177.658 742.365Z" fill="#10002B"/>
<path d="M179.098 764.573C172.208 764.841 166.387 759.453 166.119 752.566L165.833 745.212C165.566 738.323 170.953 732.502 177.84 732.234C184.73 731.966 190.551 737.354 190.819 744.241L191.105 751.594C191.372 758.481 185.985 764.305 179.098 764.573Z" fill="#10002B"/>
<path d="M-4.87553 749.462C-5.14345 742.573 0.244348 736.752 7.13124 736.484C14.0209 736.216 19.8418 741.604 20.1096 748.491L20.4883 758.229C20.7562 765.119 15.3684 770.94 8.48152 771.207L-3.43575 771.671L-4.87553 749.462Z" fill="#10002B"/>
<path d="M132.641 742.536C132.354 735.158 138.124 728.924 145.5 728.637C152.879 728.35 159.113 734.12 159.4 741.496L159.805 751.923C160.092 759.302 154.322 765.536 146.946 765.823L134.184 766.319L132.641 742.536Z" fill="#10002B"/>
<path d="M66.8616 698.581C65.636 698.628 64.6052 697.675 64.5575 696.449L63.7254 675.049C63.5322 670.083 67.416 665.882 72.3852 665.689L118.865 663.881C123.831 663.688 128.032 667.572 128.225 672.541L128.302 674.52C128.35 675.746 127.396 676.776 126.171 676.824C124.945 676.872 123.914 675.918 123.867 674.692L123.79 672.711C123.692 670.19 121.561 668.219 119.04 668.317L72.5549 670.124C70.0342 670.222 68.0629 672.353 68.1609 674.874L68.9931 696.274C69.0407 697.5 68.0872 698.533 66.8616 698.581Z" fill="#FBF9FF"/>
<path d="M118.649 666.781L118.201 666.798L112.971 667.001L78.5058 668.342L74.4314 668.5L72.8251 668.562C69.4261 668.695 66.779 671.556 66.9112 674.955L67.8198 698.323C68.5452 697.935 69.0298 697.157 68.9957 696.278L68.1635 674.878C68.0655 672.358 70.0368 670.227 72.5575 670.129L74.4918 670.054L78.5662 669.895L113.031 668.555L118.262 668.352L119.037 668.321C121.558 668.223 123.689 670.195 123.787 672.715L124.619 694.115C124.653 694.994 125.194 695.73 125.95 696.062L125.041 672.692C124.909 669.295 122.045 666.648 118.649 666.781Z" fill="#B5B5F7"/>
<path d="M76.0367 751.632L-32.8612 755.867C-34.4954 755.93 -35.8699 754.656 -35.9333 753.024L-36.3032 743.511C-36.3697 741.802 -35.6599 740.157 -34.3704 739.033L-26.2456 731.945C-24.2697 730.22 -21.7643 729.226 -19.1435 729.124L75.0246 725.463L76.0422 751.632L76.0367 751.632Z" fill="#B5B5F7"/>
<path d="M73.1008 746.099L10.5352 748.532L10.7544 754.171L73.3201 751.738L73.1008 746.099Z" fill="#9696EA"/>
<path d="M73.7615 746.075L10.5371 748.533L10.7564 754.172L73.9807 751.714L73.7615 746.075Z" fill="#4A0FC7"/>
<path d="M16.8996 748.285L10.5352 748.532L10.7544 754.171L17.1188 753.924L16.8996 748.285Z" fill="#4A0FC7"/>
<path d="M86.4092 751.229L74.0528 751.709C72.4187 751.773 71.0442 750.499 70.9808 748.867L70.1931 728.612C70.1296 726.978 71.4038 725.604 73.0352 725.54L85.3916 725.06L86.4092 751.229Z" fill="#4A0FC7"/>
<path d="M100.767 678.169C100.876 677.742 100.928 677.294 100.91 676.833C100.809 674.237 98.6233 672.212 96.0247 672.313C93.4289 672.414 91.4041 674.6 91.5051 677.199C91.5231 677.66 91.6098 678.102 91.7513 678.519L100.767 678.169Z" fill="#FDBC01"/>
<path d="M95.1343 677.136C94.4006 677.164 93.7582 676.607 93.7297 675.874C93.7294 675.868 93.7293 675.865 93.7291 675.86C93.6786 674.562 94.1582 673.366 94.9784 672.482C92.9099 673.044 91.4232 674.97 91.51 677.201C91.528 677.663 91.6147 678.105 91.7562 678.522L100.772 678.172C100.873 677.77 100.924 677.347 100.915 676.911L95.1343 677.136Z" fill="#D7A003"/>
<path d="M101.365 676.892L91.0625 677.293L91.1654 679.939L101.468 679.538L101.365 676.892Z" fill="#7D2EFF"/>
<path d="M101.435 678.682L91.1328 679.083L91.166 679.936L101.469 679.536L101.435 678.682Z" fill="#4A0FC7"/>
<path d="M93.9726 677.18L91.0625 677.293L91.1654 679.939L94.0755 679.826L93.9726 677.18Z" fill="#4A0FC7"/>
<path d="M130.687 677.006C130.796 676.578 130.848 676.131 130.83 675.67C130.729 673.074 128.543 671.049 125.945 671.15C123.349 671.251 121.324 673.437 121.425 676.035C121.443 676.497 121.53 676.939 121.671 677.356L130.687 677.006Z" fill="#FDBC01"/>
<path d="M125.054 675.973C124.32 676.001 123.678 675.444 123.65 674.711C123.649 674.705 123.649 674.702 123.649 674.697C123.599 673.399 124.078 672.203 124.898 671.319C122.83 671.881 121.343 673.807 121.43 676.038C121.448 676.5 121.535 676.942 121.676 677.359L130.692 677.009C130.793 676.607 130.844 676.184 130.835 675.748L125.054 675.973Z" fill="#D7A003"/>
<path d="M131.285 675.729L120.982 676.13L121.085 678.776L131.388 678.375L131.285 675.729Z" fill="#7D2EFF"/>
<path d="M131.353 677.519L121.051 677.92L121.084 678.773L131.387 678.373L131.353 677.519Z" fill="#4A0FC7"/>
<path d="M123.893 676.017L120.982 676.13L121.085 678.776L123.995 678.663L123.893 676.017Z" fill="#4A0FC7"/>
<path d="M139.993 678.037L91.8594 679.909L92.0936 685.932L146.247 683.826C146.12 680.502 143.319 677.908 139.993 678.037Z" fill="#7D2EFF"/>
<path d="M163.782 692.568C163.49 692.58 163.196 692.477 162.971 692.26L159.01 688.462C157.148 686.678 154.602 685.711 152.026 685.811L143.547 686.141C142.935 686.164 142.418 685.686 142.395 685.075C142.371 684.463 142.849 683.946 143.46 683.923L151.94 683.593C155.116 683.469 158.252 684.661 160.548 686.86L164.509 690.658C164.951 691.084 164.967 691.785 164.542 692.227C164.333 692.444 164.06 692.557 163.782 692.568Z" fill="#B5B5F7"/>
<path d="M159.554 707.039C159.026 707.059 158.544 706.699 158.426 706.167C158.294 705.568 158.675 704.977 159.274 704.845L160.115 704.662C161.578 704.344 162.599 703.024 162.54 701.528L162.46 699.472C162.437 698.86 162.915 698.343 163.526 698.32C164.138 698.296 164.654 698.774 164.678 699.385L164.758 701.442C164.858 704.016 163.104 706.283 160.589 706.831L159.748 707.015C159.684 707.028 159.62 707.036 159.554 707.039Z" fill="#B5B5F7"/>
<path d="M164.084 701.221L160.293 701.368C159.145 701.413 158.181 700.518 158.136 699.373L157.827 691.416C157.782 690.268 158.677 689.304 159.822 689.259L163.613 689.112C164.761 689.067 165.725 689.962 165.77 691.107L166.079 699.064C166.124 700.209 165.232 701.176 164.084 701.221Z" fill="#4A0FC7"/>
<path d="M165.046 701.183L162.242 701.292C161.094 701.337 160.13 700.442 160.085 699.297L159.776 691.34C159.731 690.192 160.626 689.227 161.771 689.183L164.576 689.074C165.723 689.029 166.688 689.924 166.732 691.069L167.042 699.026C167.089 700.171 166.194 701.138 165.046 701.183Z" fill="#9696EA"/>
<path d="M165.56 696.992C165.254 697.003 164.994 696.763 164.982 696.457L164.883 693.906C164.871 693.601 165.111 693.341 165.417 693.329C165.723 693.317 165.983 693.557 165.995 693.863L166.094 696.414C166.106 696.72 165.868 696.98 165.56 696.992Z" fill="#D6D4FF"/>
<path d="M165.394 692.738C165.088 692.75 164.828 692.509 164.816 692.204L164.801 691.812C164.789 691.506 165.029 691.246 165.335 691.234C165.641 691.222 165.901 691.463 165.913 691.769L165.928 692.16C165.94 692.466 165.702 692.726 165.394 692.738Z" fill="#D6D4FF"/>
<path d="M200.306 710.006L167.102 705.636L143.012 683.952L105.229 685.44L121.37 707.414L134.544 719.939L162.153 739.711L204.962 738.046L204.03 714.095C203.952 712.005 202.379 710.279 200.306 710.006Z" fill="#F5EFFF"/>
<path d="M194.902 714.244L170.445 715.195L170.724 722.366L195.181 721.415L194.902 714.244Z" fill="#10002B"/>
<path d="M150.477 728.075L118.041 729.336L118.751 747.601L151.187 746.34L150.477 728.075Z" fill="#10002B"/>
<path d="M75.0173 725.461L51.2106 726.387L58.7154 700.638C59.4129 698.245 61.5632 696.567 64.0506 696.47L77.6298 695.942L75.0173 725.461Z" fill="#B5B5F7"/>
<path d="M70.228 722.449L68.7188 722.508C67.1013 722.57 65.7357 721.307 65.6728 719.689L65.4929 715.065C65.43 713.447 66.6935 712.082 68.311 712.019L69.8201 711.96C70.3315 711.94 70.7617 712.338 70.7816 712.85C70.8014 713.361 70.4034 713.791 69.8921 713.811L68.383 713.87C67.7882 713.893 67.3234 714.395 67.3465 714.99L67.5264 719.615C67.5495 720.209 68.0519 720.674 68.6467 720.651L70.1558 720.592C70.6671 720.572 71.0973 720.97 71.1172 721.482C71.1373 721.999 70.7393 722.429 70.228 722.449Z" fill="#10002B"/>
<path d="M91.8396 727.805L75.1337 728.454L73.9744 698.642C73.9195 697.23 75.02 696.04 76.4319 695.986L90.5808 695.435L91.8396 727.805Z" fill="#4A0FC7"/>
<path d="M51.7457 724.551L51.213 726.386L75.017 725.461L74.9465 723.649L51.7457 724.551Z" fill="#9696EA"/>
<path d="M75.6998 743.069L162.153 739.708L161.223 715.801C161.141 713.694 159.54 711.958 157.445 711.708L121.37 707.411L105.214 685.418L77.2674 686.538L78.1769 709.926L74.6223 715.291L75.7026 743.069L75.6998 743.069Z" fill="#B5B5F7"/>
<path d="M113.561 711.45L113.252 703.51C113.239 703.177 113.127 702.853 112.93 702.585L103.904 690.296C103.516 689.768 102.889 689.467 102.233 689.493L83.341 690.25C82.2515 690.292 81.4049 691.21 81.4472 692.299L82.2312 712.46C82.2501 712.946 82.1157 713.427 81.8448 713.833L80.4566 715.927C79.3155 717.647 78.7462 719.685 78.8264 721.747L79.6496 742.916L110.971 741.698L110.148 720.529C110.068 718.467 110.637 716.429 111.778 714.709L113.282 712.441C113.477 712.147 113.575 711.8 113.561 711.45Z" fill="#B5B5F7"/>
<path d="M109.847 717.104C110.861 717.065 111.652 716.21 111.612 715.196C111.573 714.181 110.718 713.391 109.704 713.431C108.69 713.47 107.899 714.324 107.939 715.339C107.978 716.353 108.832 717.144 109.847 717.104Z" fill="#7D2EFF"/>
<path d="M109.37 716.202L103.82 716.418C103.324 716.438 102.905 716.041 102.885 715.535C102.866 715.028 103.253 714.601 103.748 714.581L109.299 714.365C109.794 714.346 110.214 714.743 110.233 715.249C110.253 715.758 109.866 716.183 109.37 716.202Z" fill="#10002B"/>
<path d="M129.059 744.97L128.316 725.88L143.232 725.3C149.866 725.042 155.453 730.211 155.711 736.845L155.987 743.926L129.059 744.973L129.059 744.97Z" fill="#4A0FC7"/>
<path d="M114.395 744.285L75.6943 745.79L75.6001 743.369C75.5664 742.502 76.2422 741.771 77.1093 741.738L114.242 740.294L114.398 744.285L114.395 744.285Z" fill="#4A0FC7"/>
<path d="M114.357 743.265L75.6562 744.77L75.6959 745.79L114.396 744.285L114.357 743.265Z" fill="#10002B"/>
<path d="M114.62 750.132L74.3407 751.698L74.1743 747.421C74.1406 746.554 74.8164 745.823 75.6835 745.79L114.392 744.284L114.62 750.132Z" fill="#4A0FC7"/>
<path d="M114.58 749.109L74.3008 750.676L74.3404 751.696L114.62 750.129L114.58 749.109Z" fill="#10002B"/>
<path d="M121.636 744.003L114.112 744.296C113.295 744.328 112.608 743.692 112.576 742.875L112.536 741.841C112.504 741.024 113.14 740.337 113.957 740.305L121.48 740.012L121.636 744.003Z" fill="#10002B"/>
<path d="M121.817 749.852L114.341 750.143C113.524 750.174 112.836 749.539 112.805 748.722L112.692 745.834C112.66 745.017 113.296 744.33 114.113 744.298L121.589 744.007L121.817 749.852Z" fill="#10002B"/>
<path d="M115.124 738.938L115.33 744.246L129.013 743.714L128.319 725.874L127.168 725.919C120.245 726.191 114.855 732.02 115.124 738.938Z" fill="#4A0FC7"/>
<path d="M119.739 744.077L115.332 744.248L115.559 750.095L119.967 749.924L119.739 744.077Z" fill="#4A0FC7"/>
<path d="M117.276 750.029L116.818 738.259C116.623 733.237 120.536 729.007 125.558 728.811L139.227 728.28C144.493 728.075 148.928 732.178 149.133 737.445L149.573 748.77L117.276 750.026L117.276 750.029Z" fill="#10002B"/>
<path d="M110.269 703.137L102.53 692.602C102.239 692.204 101.768 691.98 101.279 691.999L85.4051 692.636C84.588 692.668 83.9524 693.358 83.984 694.172L84.581 709.524C84.6128 710.341 85.3 710.977 86.1171 710.945L109.396 710.04C110.213 710.008 110.849 709.321 110.817 708.504L110.651 704.23C110.635 703.835 110.504 703.453 110.269 703.137Z" fill="#10002B"/>
<path d="M110.651 704.229L110.817 708.504C110.849 709.321 110.21 710.008 109.396 710.04L86.1173 710.945C86.0172 710.949 85.9168 710.942 85.8215 710.926C85.1409 710.816 84.6091 710.241 84.5811 709.521L83.9841 694.169C83.9524 693.352 84.5909 692.664 85.4052 692.633L93.1393 692.321L96.0991 692.203L99.6813 692.058L99.684 692.058L101.276 691.993C101.691 691.977 102.089 692.134 102.376 692.424C102.434 692.477 102.48 692.534 102.527 692.596L110.266 703.128C110.504 703.456 110.635 703.835 110.651 704.229Z" fill="#10002B"/>
<path d="M91.2875 695.699L84.5215 708.023L84.5798 709.524C84.6077 710.241 85.1395 710.818 85.8202 710.928L93.5144 696.921C93.9901 696.056 93.3397 695.004 92.353 695.043C91.9056 695.06 91.5006 695.309 91.2875 695.699Z" fill="#5A4C7F"/>
<path d="M106.83 698.452L102.627 706.103C102.151 706.967 102.801 708.019 103.788 707.981C104.233 707.964 104.638 707.714 104.851 707.324L108.485 700.706L106.83 698.452Z" fill="#5A4C7F"/>
<path d="M102.381 692.43L92.3476 710.703L89.3905 710.818L99.6863 692.064L99.6891 692.064L101.281 691.999C101.696 691.983 102.094 692.14 102.381 692.43Z" fill="#5A4C7F"/>
<path d="M121.374 707.413L167.106 705.635L143.016 683.951L105.219 685.421L121.374 707.413Z" fill="#10002B"/>
<path d="M167.106 705.635L121.374 707.414L119.305 704.599L105.221 685.421L143.015 683.951L144.146 684.97L150.474 690.667L152.413 692.409L167.106 705.635Z" fill="#10002B"/>
<path d="M144.144 684.97L132.047 706.998L121.372 707.413L119.303 704.599L130.374 684.442L143.014 683.951L144.144 684.97Z" fill="#5A4C7F"/>
<path d="M133.152 694.837C133.637 694.721 134.057 694.418 134.318 693.99L140.417 684.053L135.893 684.228L131.11 692.022C130.234 693.45 131.522 695.226 133.152 694.837Z" fill="#10002B"/>
<path d="M152.41 692.41L144.669 706.509L141.712 706.624L150.471 690.668L152.41 692.41Z" fill="#5A4C7F"/>
<path d="M171.084 722.351L161.496 722.724L161.217 715.554L170.805 715.181C171.622 715.149 172.309 715.785 172.341 716.602L172.505 720.812C172.537 721.632 171.901 722.319 171.084 722.351Z" fill="#FDBC01"/>
<path d="M195.234 722.743L170.777 723.694L171.056 730.865L195.513 729.914L195.234 722.743Z" fill="#10002B"/>
<path d="M171.416 730.85L161.828 731.223L161.549 724.053L171.137 723.68C171.954 723.648 172.641 724.284 172.673 725.101L172.837 729.311C172.869 730.129 172.233 730.818 171.416 730.85Z" fill="#FDBC01"/>
<path d="M204.305 721.06L194.716 721.432C193.899 721.464 193.212 720.828 193.18 720.011L193.016 715.801C192.985 714.984 193.62 714.297 194.438 714.265L204.026 713.892L204.305 721.06Z" fill="#FDBC01"/>
<path d="M204.633 729.559L195.044 729.931C194.227 729.963 193.54 729.327 193.508 728.51L193.345 724.3C193.313 723.483 193.949 722.796 194.766 722.764L204.354 722.391L204.633 729.559Z" fill="#FDBC01"/>
<path d="M172.563 722.293L161.496 722.724L161.548 724.052L172.615 723.622L172.563 722.293Z" fill="#BB8C04"/>
<path d="M193.287 722.819L204.354 722.389L204.302 721.06L193.235 721.491L193.287 722.819Z" fill="#BB8C04"/>
<path d="M171.153 723.679L194.748 722.762L194.696 721.433L171.101 722.351L171.153 723.679Z" fill="#7D2EFF"/>
<path d="M99.2445 692.083L97.916 692.135L98.6287 710.461L99.9571 710.409L99.2445 692.083Z" fill="#7D2EFF"/>
<path d="M161.219 715.554L156.612 717.904C155.635 718.404 155.037 719.424 155.08 720.522L155.506 731.466L161.828 731.22L161.219 715.554Z" fill="#D7A003"/>
<path d="M161.495 722.724L155.172 722.97L155.224 724.298L161.546 724.052L161.495 722.724Z" fill="#4A0FC7"/>
<path d="M204.334 744.272L164.436 745.823L163.865 731.144L203.764 729.592C205.398 729.528 206.772 730.803 206.836 732.434L207.177 741.2C207.24 742.834 205.969 744.208 204.334 744.272Z" fill="#4A0FC7"/>
<path d="M155.504 731.469L155.844 740.226C155.883 741.224 156.442 742.132 157.315 742.615L162.572 745.523C163.144 745.837 163.79 745.993 164.44 745.968C166.044 745.906 167.291 744.557 167.229 742.954L166.878 733.938C166.816 732.334 165.468 731.087 163.864 731.149L155.504 731.474L155.504 731.469Z" fill="#10002B"/>
<path d="M199.562 742.454L199.168 732.326L175.536 733.245L175.93 743.373L199.562 742.454Z" fill="#D6D4FF"/>
<path d="M197.751 733.862L177.076 734.666L177.355 741.836L198.03 741.032L197.751 733.862Z" fill="#FBF9FF"/>
<path d="M172.067 734.516L171.592 734.534C171.261 734.547 171.005 734.824 171.017 735.155L171.049 735.978C171.062 736.309 171.339 736.565 171.67 736.552L172.145 736.534C172.476 736.521 172.733 736.244 172.72 735.913L172.688 735.09C172.675 734.759 172.398 734.503 172.067 734.516Z" fill="#10002B"/>
<path d="M172.274 739.808L171.799 739.826C171.468 739.839 171.212 740.116 171.224 740.447L171.256 741.27C171.269 741.601 171.546 741.857 171.877 741.844L172.353 741.826C172.683 741.813 172.94 741.536 172.927 741.205L172.895 740.382C172.882 740.051 172.605 739.795 172.274 739.808Z" fill="#10002B"/>
<path d="M202.727 733.324L203.202 733.306C203.533 733.293 203.81 733.55 203.823 733.88L203.855 734.703C203.867 735.034 203.611 735.311 203.28 735.324L202.805 735.342C202.474 735.355 202.197 735.099 202.184 734.768L202.152 733.945C202.139 733.614 202.396 733.337 202.727 733.324Z" fill="#10002B"/>
<path d="M202.934 738.616L203.409 738.598C203.74 738.585 204.017 738.842 204.03 739.172L204.062 739.995C204.075 740.326 203.818 740.603 203.487 740.616L203.012 740.634C202.681 740.647 202.404 740.391 202.391 740.06L202.359 739.237C202.346 738.906 202.603 738.629 202.934 738.616Z" fill="#10002B"/>
<path d="M125.643 694.054C125.351 694.065 125.058 693.962 124.832 693.746L120.871 689.947C119.009 688.163 116.464 687.196 113.887 687.296L105.408 687.626C104.797 687.65 104.28 687.172 104.256 686.56C104.232 685.949 104.71 685.432 105.322 685.408L113.801 685.078C116.978 684.955 120.114 686.147 122.409 688.345L126.37 692.144C126.813 692.569 126.829 693.27 126.403 693.712C126.195 693.929 125.921 694.043 125.643 694.054Z" fill="#F5EFFF"/>
<path d="M121.415 708.522C120.887 708.543 120.405 708.183 120.287 707.65C120.155 707.051 120.536 706.46 121.135 706.329L121.977 706.146C123.44 705.827 124.46 704.507 124.402 703.012L124.322 700.955C124.298 700.344 124.776 699.827 125.388 699.803C125.999 699.779 126.516 700.257 126.54 700.869L126.62 702.926C126.72 705.499 124.965 707.766 122.451 708.315L121.609 708.498C121.543 708.512 121.479 708.52 121.415 708.522Z" fill="#F5EFFF"/>
<path d="M125.943 702.705L122.152 702.853C121.005 702.897 120.04 702.002 119.996 700.857L119.686 692.9C119.642 691.752 120.536 690.788 121.682 690.743L125.472 690.596C126.62 690.551 127.585 691.446 127.629 692.591L127.939 700.548C127.983 701.693 127.091 702.66 125.943 702.705Z" fill="#4A0FC7"/>
<path d="M126.906 702.668L124.102 702.777C122.954 702.822 121.989 701.927 121.945 700.782L121.635 692.825C121.591 691.677 122.486 690.713 123.631 690.668L126.435 690.559C127.583 690.515 128.547 691.41 128.592 692.555L128.901 700.511C128.949 701.656 128.054 702.624 126.906 702.668Z" fill="#9696EA"/>
<path d="M125.31 701.567C125.004 701.578 124.745 701.338 124.733 701.032C124.721 700.727 124.961 700.467 125.267 700.455C126.098 700.423 126.747 699.721 126.714 698.89L126.634 696.831C126.622 696.525 126.863 696.266 127.169 696.254C127.474 696.242 127.734 696.482 127.746 696.788L127.826 698.847C127.879 700.292 126.752 701.51 125.31 701.567Z" fill="#D6D4FF"/>
<path d="M93.6332 679.841L76.6855 680.5L76.9197 686.523L99.8899 685.629C99.7635 682.305 96.9599 679.712 93.6332 679.841Z" fill="#4A0FC7"/>
<path d="M145.623 714.337L143.884 714.405L142.294 714.466C140.751 714.526 139.547 715.829 139.607 717.371C139.667 718.914 140.969 720.118 142.511 720.058L144.101 719.996L145.841 719.929C147.383 719.869 148.588 718.567 148.528 717.024C148.468 715.482 147.163 714.277 145.623 714.337Z" fill="#7D2EFF"/>
<path d="M145.803 718.942L141.487 719.11C140.487 719.149 139.646 718.369 139.607 717.371C139.569 716.37 140.349 715.53 141.346 715.491L145.663 715.323C146.663 715.284 147.503 716.064 147.542 717.062C147.581 718.063 146.801 718.903 145.803 718.942Z" fill="#FDBC01"/>
<path d="M145.661 715.324L143.922 715.392C144.922 715.353 145.763 716.133 145.801 717.13C145.84 718.128 145.06 718.971 144.063 719.01L145.802 718.942C146.803 718.903 147.58 718.06 147.541 717.063C147.502 716.065 146.659 715.285 145.661 715.324Z" fill="#D7A003"/>
<path d="M65.1891 731.025L17.8619 732.866C16.8808 732.904 16.1168 733.729 16.155 734.71C16.1931 735.692 17.0189 736.455 18 736.417L65.4022 734.574C66.4 734.535 67.1739 733.678 67.1043 732.676C67.0386 731.705 66.1618 730.987 65.1891 731.025Z" fill="#4A0FC7"/>
<path d="M65.4941 738.93L21.9244 740.624C20.9433 740.662 20.1793 741.488 20.2175 742.469C20.2556 743.45 21.0814 744.214 22.0625 744.176L65.7072 742.479C66.705 742.44 67.4788 741.583 67.4093 740.581C67.3436 739.61 66.4668 738.892 65.4941 738.93Z" fill="#4A0FC7"/>
<path d="M134.185 766.32C126.806 766.607 120.572 760.837 120.285 753.461L119.88 743.033C119.593 735.655 125.362 729.421 132.739 729.134C140.117 728.847 146.351 734.617 146.638 741.993L147.043 752.42C147.33 759.797 141.561 766.033 134.185 766.32Z" fill="#4A0FC7"/>
<path d="M133.708 760.413C129.592 760.573 126.115 757.355 125.955 753.241L125.55 742.814C125.39 738.698 128.609 735.221 132.722 735.061C136.835 734.901 140.314 738.12 140.474 742.233L140.88 752.661C141.04 756.774 137.824 760.253 133.708 760.413Z" fill="#D6D4FF"/>
<path d="M133.668 759.427C130.091 759.566 127.08 756.78 126.941 753.203L126.535 742.775C126.396 739.199 129.182 736.187 132.759 736.048C136.336 735.909 139.347 738.695 139.486 742.272L139.892 752.699C140.031 756.276 137.245 759.288 133.668 759.427Z" fill="#9696EA"/>
<path d="M136.378 746.639C132.801 746.778 130.015 749.789 130.154 753.366L130.36 758.663C131.344 759.19 132.474 759.472 133.669 759.425C137.245 759.286 140.032 756.275 139.892 752.698L139.686 747.401C138.706 746.874 137.573 746.592 136.378 746.639Z" fill="#5A4C7F"/>
<path d="M127.844 753.168L127.438 742.74C127.305 739.316 129.856 736.409 133.212 736.047C133.062 736.042 132.912 736.042 132.759 736.048C129.182 736.187 126.396 739.199 126.535 742.775L126.941 753.203C127.08 756.78 130.091 759.566 133.668 759.427C133.821 759.421 133.971 759.407 134.12 759.392C130.746 759.29 127.977 756.592 127.844 753.168Z" fill="#10002B"/>
<path d="M133.671 753.118C132.301 753.172 131.146 752.103 131.092 750.733L130.866 744.913C130.813 743.543 131.881 742.388 133.251 742.335C134.622 742.282 135.776 743.35 135.83 744.72L136.056 750.54C136.107 751.91 135.041 753.065 133.671 753.118Z" fill="#10002B"/>
<path d="M133.631 752.132C132.805 752.164 132.11 751.52 132.077 750.695L131.851 744.875C131.819 744.05 132.463 743.354 133.288 743.322C134.114 743.29 134.809 743.933 134.842 744.759L135.068 750.578C135.1 751.401 134.453 752.1 133.631 752.132Z" fill="#D6D4FF"/>
<path d="M132.758 736.044C132.171 736.067 131.605 736.17 131.071 736.335L131.116 737.48C131.157 738.553 132.061 739.389 133.134 739.347C134.206 739.306 135.042 738.402 135.001 737.329L134.962 736.337C134.269 736.119 133.525 736.015 132.758 736.044Z" fill="#10002B"/>
<path d="M139.49 742.271L139.592 744.869L139.013 744.891C137.941 744.933 137.037 744.1 136.995 743.025C136.954 741.952 137.79 741.048 138.862 741.006L139.31 740.989C139.412 741.4 139.473 741.829 139.49 742.271Z" fill="#10002B"/>
<path d="M139.793 750.097L139.894 752.698C139.911 753.138 139.884 753.57 139.816 753.987L139.369 754.005C138.296 754.046 137.393 753.21 137.351 752.138C137.309 751.065 138.145 750.161 139.218 750.12L139.793 750.097Z" fill="#10002B"/>
<path d="M129.568 743.314C129.609 744.389 128.776 745.29 127.701 745.332L126.633 745.373L126.532 742.775C126.515 742.333 126.543 741.901 126.61 741.483L127.55 741.447C128.622 741.405 129.526 742.241 129.568 743.314Z" fill="#10002B"/>
<path d="M129.925 752.427C129.967 753.5 129.133 754.403 128.058 754.445L127.119 754.482C127.019 754.071 126.958 753.642 126.941 753.203L126.84 750.602L127.907 750.56C128.98 750.518 129.883 751.354 129.925 752.427Z" fill="#10002B"/>
<path d="M133.786 756.104C132.714 756.146 131.878 757.049 131.919 758.122L131.964 759.267C132.511 759.393 133.081 759.449 133.668 759.426C134.437 759.396 135.169 759.234 135.843 758.96L135.804 757.968C135.763 756.898 134.859 756.062 133.786 756.104Z" fill="#10002B"/>
<path d="M-8.24067 749.261L-8.83789 733.903L5.08874 733.362C11.2836 733.121 16.4982 737.948 16.739 744.14L16.9 748.281L-8.24078 749.258L-8.24067 749.261Z" fill="#4A0FC7"/>
<path d="M-19.4022 755.344L-19.7558 746.25C-19.9381 741.562 -16.284 737.612 -11.5954 737.43L1.16672 736.933C6.08315 736.742 10.2263 740.572 10.4176 745.492L10.7551 754.171L-19.4022 755.344Z" fill="#10002B"/>
<path d="M-3.43543 771.671C-10.3251 771.939 -16.146 766.552 -16.4138 759.665L-16.6998 752.311C-16.9677 745.421 -11.5799 739.6 -4.69298 739.333C2.19669 739.065 8.01757 744.452 8.28538 751.339L8.57135 758.693C8.84193 765.58 3.45424 771.404 -3.43543 771.671Z" fill="#4A0FC7"/>
<path d="M-3.87849 766.155C-7.72214 766.304 -10.9676 763.299 -11.1169 759.458L-11.4029 752.104C-11.5524 748.261 -8.54721 745.015 -4.70634 744.866C-0.862684 744.716 2.38274 747.721 2.5321 751.562L2.81806 758.916C2.96742 762.757 -0.0376141 766.005 -3.87849 766.155Z" fill="#D6D4FF"/>
<path d="M-3.91487 765.235C-7.25549 765.365 -10.0677 762.763 -10.1976 759.423L-10.4836 752.069C-10.6135 748.728 -8.01179 745.916 -4.67118 745.786C-1.33056 745.656 1.48166 748.258 1.61156 751.599L1.89753 758.953C2.02732 762.29 -0.577039 765.105 -3.91487 765.235Z" fill="#9696EA"/>
<path d="M-1.38798 753.293C-4.72859 753.423 -7.33028 756.235 -7.20038 759.576L-7.00811 764.52C-6.08989 765.013 -5.03313 765.276 -3.91866 765.232C-0.578049 765.102 2.02364 762.29 1.89374 758.949L1.70147 754.005C0.786141 753.515 -0.270731 753.25 -1.38798 753.293Z" fill="#5A4C7F"/>
<path d="M1.68579 753.46L1.78024 755.889C1.79612 756.298 1.77011 756.702 1.70743 757.094L1.28781 757.11C0.287396 757.149 -0.558392 756.37 -0.597403 755.366C-0.636306 754.366 0.143486 753.52 1.14668 753.481L1.68579 753.46Z" fill="#10002B"/>
<path d="M17.3547 672.444L15.4369 672.519L15.4051 671.702C15.396 671.468 15.5777 671.272 15.8112 671.263L16.8813 671.221C17.1147 671.212 17.3111 671.394 17.3202 671.627L17.352 672.444L17.3547 672.444Z" fill="#10002B"/>
<path d="M15.7632 673.862C15.7899 674.549 16.2232 675.169 16.8719 675.389C18.0339 675.781 18.8782 676.878 18.8791 678.189C18.8778 679.731 17.6372 681.04 16.0985 681.125C14.8849 681.195 13.8514 681.246 12.6225 680.35C11.2934 679.024 11.3006 677.78 11.1071 676.955C10.9674 676.367 10.0338 676.409 9.85017 676.984C9.84025 677.015 9.83321 677.049 9.82617 677.083C9.14223 681.039 12.2583 684.726 16.2693 684.514C16.372 684.508 16.4775 684.501 16.5829 684.491C19.7325 684.174 22.2006 681.503 22.2752 678.341C22.3417 675.469 20.519 673.048 17.9941 672.181C16.8715 671.798 15.7173 672.681 15.7632 673.862Z" fill="#FDBC01"/>
<path d="M16.1005 684.526L15.1582 684.563L15.3866 683.849L16.1005 684.526Z" fill="#FDBC01"/>
<path d="M17.4399 672.09L16.4004 672.131L16.4259 672.787L17.6555 672.552L17.4399 672.09Z" fill="#FDBC01"/>
<path d="M14.7984 673.899C14.8251 674.586 15.2584 675.206 15.9071 675.426C17.0691 675.818 17.9134 676.915 17.9143 678.226C17.913 679.768 16.6724 681.077 15.1337 681.162C13.92 681.232 12.8866 681.283 11.6577 680.387C10.3285 679.061 10.3358 677.817 10.1423 676.992C10.0026 676.405 9.06895 676.446 8.88533 677.021C8.8754 677.052 8.86837 677.086 8.86133 677.12C8.17739 681.077 11.2934 684.763 15.3044 684.551C15.4072 684.545 15.5127 684.538 15.6181 684.528C18.7677 684.211 21.2357 681.54 21.3104 678.378C21.3768 675.506 19.5542 673.085 17.0293 672.218C15.9066 671.836 14.7524 672.718 14.7984 673.899Z" fill="#D7A003"/>
<path d="M16.4789 674.561C16.8964 674.545 17.2217 674.193 17.2055 673.775C17.1893 673.358 16.8376 673.032 16.4201 673.049C16.0025 673.065 15.6772 673.417 15.6935 673.834C15.7097 674.252 16.0613 674.577 16.4789 674.561Z" fill="#FDBC01"/>
<path d="M169.941 717.029L163.699 717.271L163.837 720.82L170.079 720.577L169.941 717.029Z" fill="#FBF9FF"/>
<path d="M170.269 725.45L164.027 725.692L164.165 729.241L170.407 728.998L170.269 725.45Z" fill="#FBF9FF"/>
<path d="M201.958 715.784L195.717 716.026L195.855 719.575L202.096 719.332L201.958 715.784Z" fill="#FBF9FF"/>
<path d="M202.288 724.206L196.047 724.448L196.185 727.997L202.426 727.754L202.288 724.206Z" fill="#FBF9FF"/>
<path d="M274.883 539C275.205 537.086 274.281 535.101 272.46 534.167C270.642 533.231 268.49 533.634 267.121 535.01L274.883 539Z" fill="#9696EA"/>
<path d="M274.883 539C274.562 537.086 275.485 535.101 277.306 534.167C279.125 533.231 281.277 533.634 282.646 535.01L274.883 539Z" fill="#9696EA"/>
<path d="M257.762 532.341C258.084 530.427 257.16 528.441 255.339 527.508C253.521 526.572 251.369 526.975 250 528.351L257.762 532.341Z" fill="#9696EA"/>
<path d="M257.762 532.341C257.44 530.427 258.364 528.441 260.185 527.508C262.003 526.572 264.156 526.975 265.525 528.351L257.762 532.341Z" fill="#9696EA"/>
<path d="M716 775L-471 790.702V841H716V775Z" fill="#10002B"/>
<path d="M311.431 606.914H291.16C285.752 606.914 281.365 602.53 281.365 597.119V588.939H311.431V606.914Z" fill="#187774"/>
<path d="M318.03 566.13H281.957C274.147 566.13 267.816 572.461 267.816 580.27C267.816 588.08 274.147 594.411 281.957 594.411H318.03V566.13Z" fill="#0AAA8D"/>
<path d="M313.607 586.08H308.731C303.995 586.08 300.152 589.92 300.152 594.659H313.604V586.08H313.607Z" fill="#187774"/>
<path d="M294.029 596.585C292.832 596.585 291.859 595.612 291.859 594.414V585.462C291.859 584.264 292.832 585.462 294.029 585.462C295.227 585.462 296.2 584.264 296.2 585.462V594.414C296.2 595.612 295.23 596.585 294.029 596.585Z" fill="#10002B"/>
<path d="M312.691 548.575H302.587C293.062 548.575 285.342 556.298 285.342 565.82V572.174H312.694V548.575H312.691Z" fill="#0AAA8D"/>
<path d="M310.612 586.046H310.566C303.358 586.046 297.496 580.184 297.496 572.976V570.433C297.496 569.235 298.468 570.433 299.666 570.433C300.864 570.433 301.836 569.235 301.836 570.433V572.976C301.836 577.791 305.754 581.706 310.566 581.706H310.612C311.81 581.706 312.782 582.678 312.782 583.876C312.782 585.074 311.81 586.046 310.612 586.046Z" fill="#10002B"/>
<path d="M284.646 577.746C289.88 577.746 294.122 573.504 294.122 568.27C294.122 563.037 289.88 558.794 284.646 558.794C279.413 558.794 275.17 563.037 275.17 568.27C275.17 573.504 279.413 577.746 284.646 577.746Z" fill="#0AAA8D"/>
<path d="M280.834 600.434C284.159 600.434 286.855 597.738 286.855 594.413C286.855 591.087 284.159 588.392 280.834 588.392C277.508 588.392 274.812 591.087 274.812 594.413C274.812 597.738 277.508 600.434 280.834 600.434Z" fill="#187774"/>
<path d="M316.326 563.933C322.33 563.933 327.197 559.066 327.197 553.062C327.197 547.058 322.33 542.191 316.326 542.191C310.322 542.191 305.455 547.058 305.455 553.062C305.455 559.066 310.322 563.933 316.326 563.933Z" fill="#0AAA8D"/>
<path d="M297.854 558.407C299.033 557.846 299.711 556.807 299.368 556.085C299.025 555.364 297.791 555.233 296.611 555.794C295.432 556.355 294.755 557.394 295.098 558.116C295.441 558.838 296.675 558.968 297.854 558.407Z" fill="#187774"/>
<path d="M301.574 566.014C302.295 565.67 302.426 564.436 301.865 563.257C301.304 562.078 300.264 561.401 299.543 561.744C298.821 562.087 298.691 563.321 299.252 564.5C299.813 565.679 300.852 566.357 301.574 566.014Z" fill="#187774"/>
<path d="M313.59 569.841C314.386 569.912 315.125 568.915 315.241 567.614C315.356 566.314 314.805 565.202 314.009 565.131C313.214 565.06 312.474 566.057 312.359 567.358C312.243 568.658 312.794 569.77 313.59 569.841Z" fill="#187774"/>
<path d="M317.992 558.148C318.725 558.466 319.74 557.751 320.258 556.553C320.777 555.354 320.602 554.126 319.869 553.809C319.136 553.491 318.121 554.206 317.603 555.404C317.084 556.603 317.259 557.831 317.992 558.148Z" fill="#187774"/>
<path d="M292.248 571.129C293.001 571.396 293.965 570.614 294.4 569.383C294.836 568.152 294.578 566.938 293.825 566.672C293.072 566.405 292.108 567.187 291.673 568.418C291.237 569.649 291.495 570.863 292.248 571.129Z" fill="#187774"/>
<path d="M284.581 570.389C285.76 569.829 286.438 568.789 286.094 568.067C285.751 567.346 284.517 567.216 283.338 567.777C282.159 568.337 281.481 569.377 281.825 570.098C282.168 570.82 283.402 570.95 284.581 570.389Z" fill="#187774"/>
<path d="M289.25 579.002C290.549 579.14 291.67 578.608 291.754 577.813C291.838 577.019 290.854 576.263 289.556 576.125C288.258 575.987 287.137 576.519 287.052 577.314C286.968 578.108 287.952 578.864 289.25 579.002Z" fill="#187774"/>
<path d="M276.719 579.571C278.017 579.709 279.138 579.177 279.223 578.383C279.307 577.588 278.323 576.832 277.025 576.694C275.726 576.556 274.605 577.088 274.521 577.883C274.437 578.677 275.421 579.433 276.719 579.571Z" fill="#187774"/>
<path d="M307.945 555.67C308.872 556.59 310.08 556.875 310.643 556.308C311.205 555.741 310.91 554.536 309.983 553.616C309.056 552.697 307.849 552.411 307.286 552.978C306.723 553.546 307.018 554.751 307.945 555.67Z" fill="#187774"/>
<path d="M307.519 570.481C307.456 571.278 308.459 572.007 309.761 572.111C311.062 572.215 312.169 571.654 312.233 570.857C312.296 570.061 311.293 569.331 309.991 569.227C308.689 569.123 307.583 569.685 307.519 570.481Z" fill="#187774"/>
<path d="M300.646 609.083C299.448 609.083 298.476 608.11 298.476 606.913V601.03C298.476 598.579 296.483 596.583 294.029 596.583H292.721C285.982 596.583 280.502 588.932 280.502 582.193C280.502 580.996 281.474 582.194 282.672 582.194C283.87 582.194 284.842 580.996 284.842 582.193C284.842 586.537 288.375 592.243 292.721 592.243H294.029C298.875 592.243 302.816 596.184 302.816 601.03V606.913C302.816 608.11 301.844 609.083 300.646 609.083Z" fill="#10002B"/>
<path d="M325.918 538.942H313.609V555.499H325.918V538.942Z" fill="#10002B"/>
<path d="M318.447 538.942H313.609V555.499H318.447V538.942Z" fill="#7D2EFF"/>
<path d="M331.898 538.278H389.999V561.063H339.634L331.898 538.278Z" fill="#10002B"/>
<path d="M331.855 538.124L307.998 560.838H331.855V538.124Z" fill="#5A4C7F"/>
<path d="M331.855 538.124L355.712 560.838H331.855V538.124Z" fill="#5A4C7F"/>
<path d="M331.855 555.499C333.961 555.499 335.668 553.792 335.668 551.686C335.668 549.579 333.961 547.872 331.855 547.872C329.748 547.872 328.041 549.579 328.041 551.686C328.041 553.792 329.748 555.499 331.855 555.499Z" fill="#10002B"/>
<path d="M390 561.063H352.975V606.633H390V561.063Z" fill="#10002B"/>
<path d="M353.095 560.837H310.613V606.915H353.095V560.837Z" fill="#4A0FC7"/>
<path d="M314.127 560.837L353.096 564.266V560.837H314.127Z" fill="#10002B"/>
<path d="M314.126 560.837H310.613V606.915H314.126V560.837Z" fill="#7D2EFF"/>
<path d="M318.447 536.871H315.027V538.94H318.447V536.871Z" fill="#7D2EFF"/>
<path d="M318.447 536.871H317.312V538.94H318.447V536.871Z" fill="#4A0FC7"/>
<path d="M317.577 536H315.898C315.418 536 315.027 536.391 315.027 536.871C315.027 537.351 315.418 537.742 315.898 537.742H317.577C318.057 537.742 318.447 537.351 318.447 536.871C318.447 536.391 318.057 536 317.577 536Z" fill="#10002B"/>
<path d="M323.879 536.871H320.459V538.94H323.879V536.871Z" fill="#7D2EFF"/>
<path d="M323.88 536.871H322.746V538.94H323.88V536.871Z" fill="#4A0FC7"/>
<path d="M323.008 536H321.33C320.85 536 320.459 536.391 320.459 536.871C320.459 537.351 320.85 537.742 321.33 537.742H323.008C323.488 537.742 323.879 537.351 323.879 536.871C323.882 536.391 323.491 536 323.008 536Z" fill="#10002B"/>
<path d="M328.022 573.223H316.402V591.067H328.022V573.223Z" fill="#10002B"/>
<path d="M322.757 580.75H321.889V589.428H322.757V580.75Z" fill="#9696EA"/>
<path d="M328.46 591.508H315.963V572.787H328.46V591.508ZM316.84 590.631H327.583V573.664H316.84V590.631Z" fill="#9696EA"/>
<path d="M317.67 590.532C318.662 590.532 319.467 589.728 319.467 588.735C319.467 587.743 318.662 586.938 317.67 586.938C316.678 586.938 315.873 587.743 315.873 588.735C315.873 589.728 316.678 590.532 317.67 590.532Z" fill="#0AAA8D"/>
<path d="M322.756 590.367C323.748 590.367 324.553 589.563 324.553 588.57C324.553 587.578 323.748 586.773 322.756 586.773C321.763 586.773 320.959 587.578 320.959 588.57C320.959 589.563 321.763 590.367 322.756 590.367Z" fill="#0AAA8D"/>
<path d="M326.248 590.366C327.432 590.366 328.392 589.406 328.392 588.222C328.392 587.038 327.432 586.078 326.248 586.078C325.063 586.078 324.104 587.038 324.104 588.222C324.104 589.406 325.063 590.366 326.248 590.366Z" fill="#0AAA8D"/>
<path d="M320.038 589.757C321.155 589.757 322.061 588.851 322.061 587.734C322.061 586.617 321.155 585.712 320.038 585.712C318.921 585.712 318.016 586.617 318.016 587.734C318.016 588.851 318.921 589.757 320.038 589.757Z" fill="#0AAA8D"/>
<path d="M328.656 588.311H315.766V591.65H328.656V588.311Z" fill="#7D2EFF"/>
<path d="M329.686 571.502C324.475 570.46 319.582 570.521 314.955 571.502V573.869H329.686V571.502Z" fill="#7D2EFF"/>
<path d="M328.022 580.312H316.402V581.189H328.022V580.312Z" fill="#9696EA"/>
<path d="M347.087 573.224H335.467V591.068H347.087V573.224Z" fill="#10002B"/>
<path d="M341.821 580.75H340.953V589.428H341.821V580.75Z" fill="#9696EA"/>
<path d="M347.522 591.508H335.025V572.787H347.522V591.508ZM335.902 590.631H346.646V573.664H335.902V590.631Z" fill="#9696EA"/>
<path d="M336.734 590.533C337.727 590.533 338.531 589.729 338.531 588.736C338.531 587.744 337.727 586.939 336.734 586.939C335.742 586.939 334.938 587.744 334.938 588.736C334.938 589.729 335.742 590.533 336.734 590.533Z" fill="#0AAA8D"/>
<path d="M341.82 590.368C342.813 590.368 343.617 589.564 343.617 588.571C343.617 587.579 342.813 586.774 341.82 586.774C340.828 586.774 340.023 587.579 340.023 588.571C340.023 589.564 340.828 590.368 341.82 590.368Z" fill="#0AAA8D"/>
<path d="M345.312 590.368C346.496 590.368 347.456 589.408 347.456 588.224C347.456 587.04 346.496 586.08 345.312 586.08C344.128 586.08 343.168 587.04 343.168 588.224C343.168 589.408 344.128 590.368 345.312 590.368Z" fill="#0AAA8D"/>
<path d="M339.103 589.758C340.22 589.758 341.125 588.852 341.125 587.735C341.125 586.618 340.22 585.713 339.103 585.713C337.986 585.713 337.08 586.618 337.08 587.735C337.08 588.852 337.986 589.758 339.103 589.758Z" fill="#0AAA8D"/>
<path d="M347.72 588.312H334.83V591.651H347.72V588.312Z" fill="#7D2EFF"/>
<path d="M348.75 571.503C343.539 570.461 338.646 570.522 334.02 571.503V573.87H348.75V571.503Z" fill="#7D2EFF"/>
<path d="M347.087 580.313H335.467V581.19H347.087V580.313Z" fill="#9696EA"/>
<path d="M207.893 752.21H192.045C177.109 752.21 165 764.319 165 779.255V789.22H207.893V752.21Z" fill="#0AAA8D"/>
<path d="M213.798 734.652H203.694C194.169 734.652 186.449 742.375 186.449 751.897V758.251H213.801V734.652H213.798Z" fill="#0AAA8D"/>
<path d="M185.751 763.824C190.985 763.824 195.228 759.582 195.228 754.348C195.228 749.115 190.985 744.872 185.751 744.872C180.518 744.872 176.275 749.115 176.275 754.348C176.275 759.582 180.518 763.824 185.751 763.824Z" fill="#0AAA8D"/>
<path d="M185.28 752.376C186.34 751.316 186.673 749.931 186.024 749.282C185.376 748.634 183.991 748.967 182.931 750.027C181.871 751.087 181.538 752.472 182.186 753.121C182.835 753.769 184.22 753.436 185.28 752.376Z" fill="#187774"/>
<path d="M192.227 759.176C192.876 758.527 192.543 757.142 191.483 756.082C190.423 755.022 189.038 754.689 188.389 755.337C187.741 755.986 188.074 757.371 189.134 758.431C190.194 759.491 191.579 759.824 192.227 759.176Z" fill="#187774"/>
<path d="M206.697 758.695C207.585 758.466 208.002 757.104 207.627 755.652C207.252 754.201 206.229 753.21 205.341 753.439C204.452 753.669 204.036 755.031 204.411 756.482C204.785 757.934 205.809 758.924 206.697 758.695Z" fill="#187774"/>
<path d="M205.506 744.016C206.421 744.077 207.244 742.914 207.344 741.419C207.444 739.923 206.783 738.661 205.868 738.6C204.953 738.539 204.13 739.702 204.03 741.197C203.93 742.693 204.591 743.955 205.506 744.016Z" fill="#187774"/>
<path d="M183.693 767.742C184.539 767.387 184.754 765.979 184.174 764.597C183.594 763.215 182.438 762.382 181.592 762.737C180.746 763.092 180.531 764.5 181.111 765.882C181.691 767.264 182.847 768.097 183.693 767.742Z" fill="#187774"/>
<path d="M174.963 772.103C176.023 771.043 176.357 769.658 175.708 769.009C175.059 768.36 173.674 768.694 172.614 769.754C171.555 770.814 171.221 772.199 171.87 772.847C172.518 773.496 173.903 773.162 174.963 772.103Z" fill="#187774"/>
<path d="M185.569 776.53C187.026 776.18 188.034 775.174 187.82 774.282C187.606 773.39 186.251 772.95 184.793 773.3C183.336 773.65 182.328 774.657 182.542 775.549C182.756 776.44 184.111 776.88 185.569 776.53Z" fill="#187774"/>
<path d="M171.83 784.8C173.288 784.45 174.296 783.443 174.082 782.551C173.868 781.659 172.513 781.22 171.055 781.57C169.598 781.92 168.59 782.926 168.804 783.818C169.018 784.71 170.373 785.149 171.83 784.8Z" fill="#187774"/>
<path d="M196.506 749.211C197.862 749.849 199.278 749.694 199.669 748.864C200.059 748.034 199.277 746.844 197.92 746.206C196.564 745.567 195.148 745.723 194.758 746.552C194.367 747.382 195.15 748.573 196.506 749.211Z" fill="#187774"/>
<path d="M201.443 774.244C201.68 775.13 203.046 775.534 204.494 775.146C205.942 774.758 206.923 773.726 206.686 772.84C206.448 771.954 205.082 771.55 203.634 771.938C202.186 772.326 201.205 773.358 201.443 774.244Z" fill="#187774"/>
<path d="M195.618 763.439C195.856 764.325 197.222 764.729 198.67 764.341C200.118 763.953 201.099 762.92 200.861 762.034C200.624 761.148 199.258 760.744 197.81 761.132C196.362 761.52 195.381 762.553 195.618 763.439Z" fill="#187774"/>
<path d="M389.999 643.089H339.303V756.443H389.999V643.089Z" fill="#4A0FC7"/>
<path d="M339.669 643.137H211.055V756.673H339.669V643.137Z" fill="#9696EA"/>
<path d="M215.846 643.137H211.055V756.673H215.846V643.137Z" fill="#B5B5F7"/>
<path d="M328.879 647.362H321.715V651.222H328.879V647.362Z" fill="#D6D4FF"/>
<path d="M278.067 647.362H270.902V651.222H278.067V647.362Z" fill="#D6D4FF"/>
<path d="M332.149 651.223H324.984V655.083H332.149V651.223Z" fill="#5A4C7F"/>
<path d="M333.449 679.824H326.285V683.684H333.449V679.824Z" fill="#D6D4FF"/>
<path d="M336.717 683.685H329.553V687.544H336.717V683.685Z" fill="#D6D4FF"/>
<path d="M363.106 647.362H355.941V651.222H363.106V647.362Z" fill="#7D2EFF"/>
<path d="M376.666 655.606H369.502V659.466H376.666V655.606Z" fill="#7D2EFF"/>
<path d="M369.084 735.989H361.92V739.849H369.084V735.989Z" fill="#7D2EFF"/>
<path d="M372.35 739.849H365.186V743.709H372.35V739.849Z" fill="#7D2EFF"/>
<path d="M221.281 647.362H214.117V651.222H221.281V647.362Z" fill="#5A4C7F"/>
<path d="M215.848 704.182H211.057V708.042H215.848V704.182Z" fill="#5A4C7F"/>
<path d="M215.848 733.099H211.057V736.959H215.848V733.099Z" fill="#D6D4FF"/>
<path d="M333.666 724.884H326.502V728.744H333.666V724.884Z" fill="#5A4C7F"/>
<path d="M337.25 743.292H330.086V747.152H337.25V743.292Z" fill="#D6D4FF"/>
<path d="M276.784 655.038H264.082V756.382H276.784V655.038Z" fill="#10002B"/>
<path d="M265.262 656.484H222.73V756.294H265.262V656.484Z" fill="#4A0FC7"/>
<path d="M222.73 682.297L248.543 656.484H240.389L222.73 674.143V682.297Z" fill="#10002B"/>
<path d="M222.73 731.871L248.21 706.392H224.915L222.73 708.576V731.871Z" fill="#10002B"/>
<path d="M266.706 757.745H221.281V655.038H266.706V757.745ZM224.175 754.851H263.812V657.932H224.175V754.851Z" fill="#D6D4FF"/>
<path d="M265.26 680.327H222.729V683.221H265.26V680.327Z" fill="#D6D4FF"/>
<path d="M265.258 732.456C259.332 732.447 255.255 732.441 252.26 732.436C243.936 732.421 243.936 732.421 235.66 732.436C232.68 732.441 228.629 732.447 222.732 732.456L222.727 729.562C228.623 729.554 232.674 729.548 235.655 729.542C243.936 729.528 243.936 729.528 252.266 729.542C255.264 729.548 259.338 729.554 265.263 729.562L265.258 732.456Z" fill="#D6D4FF"/>
<path d="M243.94 707.904C241.863 707.904 239.791 707.896 235.651 707.881C232.67 707.87 228.62 707.855 222.723 707.838L222.731 704.944C228.628 704.962 232.682 704.979 235.659 704.988C243.935 705.017 243.935 705.017 252.253 704.988C255.251 704.976 259.325 704.962 265.251 704.944L265.26 707.838C259.334 707.855 255.26 707.873 252.262 707.881C248.101 707.896 246.018 707.904 243.94 707.904Z" fill="#D6D4FF"/>
<path d="M390 635.684H316.52V643.089H390V635.684Z" fill="#10002B"/>
<path d="M316.795 635.809L331.502 606.023H218.431L203.727 635.809H316.795Z" fill="#D6D4FF"/>
<path d="M233.628 610.597H222.795V613.212H233.628V610.597Z" fill="#B5B5F7"/>
<path d="M254.678 610.597H235.752V613.212H254.678V610.597Z" fill="#B5B5F7"/>
<path d="M255.033 619.665H235.904V622.281H255.033V619.665Z" fill="#B5B5F7"/>
<path d="M267.788 619.665H261.078V622.281H267.788V619.665Z" fill="#B5B5F7"/>
<path d="M279.052 611.905H274.156V614.521H279.052V611.905Z" fill="#B5B5F7"/>
<path d="M300.617 611.905H282.48V614.521H300.617V611.905Z" fill="#B5B5F7"/>
<path d="M306.043 611.905H302.744V614.521H306.043V611.905Z" fill="#B5B5F7"/>
<path d="M293.429 624.64H285.756V627.255H293.429V624.64Z" fill="#B5B5F7"/>
<path d="M305.033 624.64H295.719V627.255H305.033V624.64Z" fill="#B5B5F7"/>
<path d="M317.643 624.64H311.404V627.255H317.643V624.64Z" fill="#B5B5F7"/>
<path d="M230.819 605.878L216.107 635.66L216.626 635.916L231.338 606.134L230.819 605.878Z" fill="#4A0FC7"/>
<path d="M248.374 605.874L233.662 635.656L234.181 635.913L248.893 606.13L248.374 605.874Z" fill="#4A0FC7"/>
<path d="M265.931 605.875L251.219 635.657L251.738 635.914L266.449 606.131L265.931 605.875Z" fill="#4A0FC7"/>
<path d="M283.487 605.876L268.775 635.658L269.294 635.915L284.006 606.132L283.487 605.876Z" fill="#4A0FC7"/>
<path d="M301.042 605.873L286.33 635.655L286.849 635.912L301.561 606.129L301.042 605.873Z" fill="#4A0FC7"/>
<path d="M318.599 605.874L303.887 635.656L304.406 635.913L319.117 606.13L318.599 605.874Z" fill="#4A0FC7"/>
<path d="M331.349 606.063H390V635.684H316.52L331.349 606.063Z" fill="#7D2EFF"/>
<path d="M316.795 635.809H203.727L211.056 643.138H324.127L316.795 635.809Z" fill="#4A0FC7"/>
<path d="M325.295 602.493H295.359V606.023H325.295V602.493Z" fill="#10002B"/>
<path d="M310.588 602.493H295.359V606.023H310.588V602.493Z" fill="#4A0FC7"/>
<path d="M260.582 602.493H230.646V606.023H260.582V602.493Z" fill="#10002B"/>
<path d="M245.875 602.493H230.646V606.023H245.875V602.493Z" fill="#4A0FC7"/>
<path d="M339.669 717.242H325.59V710.595L330.52 698.94H339.669V717.242Z" fill="#10002B"/>
<path d="M335.854 702.534H324.656V716.417H335.854V702.534Z" fill="#D6D4FF"/>
<path d="M337.268 702.534H333.354V716.417H337.268V702.534Z" fill="#7D2EFF"/>
<path d="M333.354 702.534L337.269 698.94H327.969C327.388 698.94 326.844 699.233 326.523 699.719L324.656 702.537H333.354V702.534Z" fill="#7D2EFF"/>
<path d="M336.667 698.94H337.268V702.534H333.354L335.22 699.716C335.538 699.233 336.082 698.94 336.667 698.94Z" fill="#4A0FC7"/>
<path d="M330.804 705.867H327.184C326.739 705.867 326.377 705.506 326.377 705.06C326.377 704.615 326.739 704.253 327.184 704.253H330.804C331.25 704.253 331.611 704.615 331.611 705.06C331.611 705.506 331.252 705.867 330.804 705.867Z" fill="#10002B"/>
<path d="M333.354 702.534H324.656V703.052H333.354V702.534Z" fill="#4A0FC7"/>
<path d="M333.354 713.538H324.656V714.056H333.354V713.538Z" fill="#7D2EFF"/>
<path d="M337.268 702.534H333.354V703.052H337.268V702.534Z" fill="#10002B"/>
<path d="M383.583 670.887H352.881V718.036H383.583V670.887Z" fill="#10002B"/>
<path d="M383.58 691.553L371.002 704.131C370.195 704.938 370.195 706.246 371.002 707.05C371.809 707.857 373.117 707.857 373.921 707.05L383.577 697.395V691.553H383.58Z" fill="#4A0FC7"/>
<path d="M352.881 687.822V710.495L383.58 679.795V671.639H369.061L352.881 687.822Z" fill="#4A0FC7"/>
<path d="M372.545 677.918C371.998 677.918 371.471 678.135 371.084 678.523L352.881 696.725V702.567L374.006 681.442C375.305 680.143 374.382 677.918 372.545 677.918Z" fill="#10002B"/>
<path d="M389.669 719.133H351.762V723.67H389.669V719.133Z" fill="#10002B"/>
<path d="M358.133 719.133H351.762V723.67H358.133V719.133Z" fill="#7D2EFF"/>
<path d="M384.738 719.19H351.721V669.729H384.738V719.19ZM354.038 716.876H382.426V672.044H354.038V716.876Z" fill="#9696EA"/>
<path d="M387.98 666.333C374.21 663.581 361.28 663.74 349.055 666.333V672.583H387.98V666.333Z" fill="#7D2EFF"/>
<path d="M383.581 689.614H352.879V691.929H383.581V689.614Z" fill="#9696EA"/>
<path d="M222.795 634.527C223.695 634.527 224.424 633.797 224.424 632.898C224.424 631.998 223.695 631.269 222.795 631.269C221.895 631.269 221.166 631.998 221.166 632.898C221.166 633.797 221.895 634.527 222.795 634.527Z" fill="#10002B"/>
<path d="M228.574 633.745C230.683 632.642 231.496 630.038 230.394 627.929L222.758 631.922C223.863 634.031 226.464 634.847 228.574 633.745Z" fill="#10002B"/>
<path d="M228.955 631.769C230.031 630.128 229.574 627.926 227.934 626.85L225.023 631.285C224.433 632.185 225.089 633.424 226.166 633.369C227.257 633.311 228.307 632.752 228.955 631.769Z" fill="#4A0FC7"/>
<path d="M221.595 633.791L221.436 635.278L222.7 634.523L221.595 633.791Z" fill="#10002B"/>
<path d="M226.952 635.806H225.91C225.751 635.806 225.621 635.676 225.621 635.517C225.621 635.358 225.751 635.227 225.91 635.227H226.663V633.862C226.663 633.702 226.793 633.572 226.952 633.572C227.111 633.572 227.241 633.702 227.241 633.862V635.517C227.241 635.676 227.111 635.806 226.952 635.806Z" fill="#10002B"/>
<path d="M228.149 635.806H227.108C226.949 635.806 226.818 635.676 226.818 635.517C226.818 635.358 226.949 635.227 227.108 635.227H227.86V633.862C227.86 633.702 227.99 633.572 228.149 633.572C228.308 633.572 228.439 633.702 228.439 633.862V635.517C228.439 635.676 228.308 635.806 228.149 635.806Z" fill="#10002B"/>
<path d="M240.223 630.514C241.122 630.514 241.852 629.785 241.852 628.885C241.852 627.985 241.122 627.256 240.223 627.256C239.323 627.256 238.594 627.985 238.594 628.885C238.594 629.785 239.323 630.514 240.223 630.514Z" fill="#10002B"/>
<path d="M243.44 633.92C245.677 634.733 248.148 633.576 248.961 631.339L240.862 628.399C240.049 630.636 241.203 633.107 243.44 633.92Z" fill="#10002B"/>
<path d="M243.926 632.985C245.836 633.434 247.749 632.25 248.197 630.341L243.032 629.125C241.982 628.879 241.045 629.921 241.467 630.914C241.895 631.918 242.778 632.713 243.926 632.985Z" fill="#4A0FC7"/>
<path d="M238.865 629.513L238.402 630.936L239.797 630.456L238.865 629.513Z" fill="#10002B"/>
<path d="M243.888 635.806H242.846C242.687 635.806 242.557 635.676 242.557 635.517C242.557 635.358 242.687 635.227 242.846 635.227H243.598V633.862C243.598 633.702 243.728 633.572 243.888 633.572C244.047 633.572 244.177 633.702 244.177 633.862V635.517C244.177 635.676 244.047 635.806 243.888 635.806Z" fill="#10002B"/>
<path d="M245.085 635.806H244.043C243.884 635.806 243.754 635.676 243.754 635.517C243.754 635.358 243.884 635.227 244.043 635.227H244.796V633.862C244.796 633.702 244.926 633.572 245.085 633.572C245.244 633.572 245.374 633.702 245.374 633.862V635.517C245.374 635.676 245.244 635.806 245.085 635.806Z" fill="#10002B"/>
<path d="M334.513 756.442V767.455H322.668V778.468H310.822V789.48H389.999V756.442H334.513Z" fill="#10002B"/>
<path d="M310.586 778.455H184.095C183.297 778.455 182.648 779.103 182.648 779.902V789.352H310.586V778.455Z" fill="#7D2EFF"/>
<path d="M322.418 767.559H195.927C195.129 767.559 194.48 768.207 194.48 769.005V778.455H322.418V767.559Z" fill="#7D2EFF"/>
<path d="M322.418 776.118H194.48V778.456H322.418V776.118Z" fill="#10002B"/>
<path d="M310.586 787.015H182.648V789.353H310.586V787.015Z" fill="#10002B"/>
<path d="M334.25 756.662H207.759C206.961 756.662 206.312 757.31 206.312 758.109V767.559H334.25V756.662Z" fill="#7D2EFF"/>
<path d="M334.25 765.221H206.312V767.559H334.25V765.221Z" fill="#10002B"/>
<path d="M273.381 704.538C276.236 702.419 279.613 699.325 281.972 696.539C282.684 695.697 282.63 694.452 281.853 693.671L281.847 693.665C281.07 692.884 279.826 692.824 278.979 693.528C276.548 695.555 273.596 698.448 271.255 701.098C271.214 701.143 271.179 701.189 271.142 701.238C267.731 701.314 262.882 701.961 259.998 702.757L260.787 705.555C263.815 705.717 267.69 705.852 270.385 705.76C271.523 705.719 272.575 705.272 273.381 704.538Z" fill="#10002B"/>
<path d="M231.499 693.401V691.916C231.499 691.525 231.183 691.209 230.793 691.209H230.789C230.398 691.209 230.082 691.525 230.082 691.916V693.401C230.082 693.792 230.398 694.108 230.789 694.108H230.793C231.183 694.108 231.499 693.792 231.499 693.401Z" fill="#F5968C"/>
<path d="M227.203 691.716H235.592V690.348H227.203C226.824 690.348 226.518 690.654 226.518 691.033C226.518 691.41 226.824 691.716 227.203 691.716Z" fill="#F5968C"/>
<path d="M232.199 694.536H235.594V691.717H230.895V693.232C230.895 693.952 231.478 694.536 232.199 694.536Z" fill="#F5968C"/>
<path d="M272.332 751.839H267.371V754.381H272.332V751.839Z" fill="#0AAA8D"/>
<path d="M272.556 752.522L270.998 734.709L270.213 725.799C269.934 722.632 269.826 719.453 269.893 716.275C269.899 715.97 269.635 715.361 269.635 715.361H256.41L255.449 721.441H262.011L267.366 752.522H272.556Z" fill="#10002B"/>
<path d="M266.406 737.593L266.209 737.499C266.627 736.628 266.349 735.488 265.578 734.904L265.711 734.73C266.56 735.375 266.867 736.632 266.406 737.593Z" fill="#140D2B"/>
<path d="M267.664 751.054C266.438 752.961 264.68 753.994 262.796 754.822C262.105 755.126 261.66 755.812 261.66 756.565V756.85H272.701V753.586H271.832C271.221 753.586 270.725 753.09 270.725 752.479V752.444C270.725 751.677 270.102 751.054 269.335 751.054H267.664Z" fill="#F5EFFF"/>
<path d="M265.108 754.497C264.915 754.497 264.723 754.437 264.571 754.345C264.292 754.177 264.102 753.917 263.934 753.689C263.87 753.601 263.89 753.48 263.977 753.416C264.065 753.351 264.186 753.371 264.251 753.459C264.403 753.667 264.561 753.884 264.772 754.011C264.934 754.109 265.184 754.158 265.346 754.033C265.483 753.927 265.547 753.72 265.547 753.379V753.31C265.547 753.015 265.545 752.682 265.738 752.408C266.041 751.977 266.64 751.951 267.052 752.145C267.451 752.332 267.722 752.685 267.958 753.037C268.019 753.127 267.993 753.248 267.904 753.308C267.814 753.369 267.693 753.343 267.632 753.256C267.427 752.949 267.195 752.646 266.883 752.498C266.617 752.373 266.227 752.389 266.055 752.633C265.934 752.805 265.934 753.051 265.936 753.31V753.38C265.936 753.679 265.899 754.103 265.582 754.345C265.442 754.452 265.274 754.497 265.108 754.497Z" fill="#9696EA"/>
<path d="M272.525 756.25H262.019C261.912 756.25 261.824 756.162 261.824 756.055C261.824 755.947 261.912 755.859 262.019 755.859H272.525C272.632 755.859 272.72 755.947 272.72 756.055C272.72 756.162 272.632 756.25 272.525 756.25Z" fill="#9696EA"/>
<path d="M259.997 718.251L263.501 719.176L259.085 735.885C258.574 737.819 256.59 738.975 254.653 738.464C252.719 737.952 251.563 735.969 252.074 734.032L255.563 720.828C256.077 718.895 258.062 717.739 259.997 718.251Z" fill="#10002B"/>
<path d="M256.218 754.38H261.179L260.48 750.743H255.52L256.218 754.38Z" fill="#0AAA8D"/>
<path d="M252.12 736.876L255.458 751.538H260.802L258.836 733.938C258.651 732.282 257.054 731.166 255.433 731.56C253.057 732.12 251.577 734.494 252.12 736.876Z" fill="#10002B"/>
<path d="M256.002 751.054C254.775 752.961 253.018 753.994 251.134 754.822C250.443 755.126 249.998 755.812 249.998 756.565V756.85H261.423V753.586H260.172C259.561 753.586 259.065 753.09 259.065 752.479V752.444C259.065 751.677 258.442 751.054 257.675 751.054H256.002Z" fill="#F5EFFF"/>
<path d="M253.407 754.668C253.213 754.668 253.022 754.608 252.872 754.516C252.593 754.348 252.403 754.088 252.235 753.86C252.171 753.772 252.19 753.651 252.278 753.587C252.366 753.522 252.487 753.542 252.552 753.629C252.704 753.838 252.862 754.055 253.073 754.182C253.235 754.28 253.483 754.328 253.647 754.203C253.783 754.098 253.848 753.891 253.848 753.549V753.481C253.848 753.186 253.846 752.852 254.039 752.579C254.342 752.148 254.941 752.122 255.353 752.316C255.75 752.503 256.023 752.856 256.259 753.208C256.32 753.298 256.294 753.419 256.206 753.479C256.117 753.54 255.996 753.514 255.935 753.426C255.73 753.12 255.498 752.817 255.185 752.669C254.922 752.544 254.529 752.56 254.357 752.804C254.236 752.975 254.236 753.221 254.238 753.479V753.549C254.238 753.846 254.201 754.272 253.885 754.514C253.741 754.623 253.573 754.668 253.407 754.668Z" fill="#9696EA"/>
<path d="M261.246 756.25H250.309C250.201 756.25 250.113 756.162 250.113 756.055C250.113 755.947 250.201 755.859 250.309 755.859H261.246C261.353 755.859 261.441 755.947 261.441 756.055C261.441 756.162 261.355 756.25 261.246 756.25Z" fill="#9696EA"/>
<path d="M254.012 736.226L253.887 736.046C254.195 735.831 254.396 735.451 254.426 735.029C254.455 734.607 254.308 734.203 254.033 733.947L254.182 733.787C254.51 734.092 254.677 734.55 254.642 735.044C254.607 735.538 254.379 735.968 254.012 736.226Z" fill="#140D2B"/>
<path d="M273.6 692.189C271.212 690.884 268.534 690.199 265.812 690.199H235.592V695.355H255.022C255.613 695.355 256.093 695.836 256.093 696.427L255.652 713.916C255.64 714.389 256.019 714.777 256.492 714.777H269.533C270.006 714.777 270.385 714.389 270.373 713.916L269.959 696.644C269.959 696.273 270.348 696.029 270.683 696.191L278.479 699.973L279.93 695.646L273.6 692.189Z" fill="#F5EFFF"/>
<path d="M271.544 691.814L268.871 692.793L269.85 695.466L272.523 694.487L271.544 691.814Z" fill="#D6D4FF"/>
<path d="M275.196 693.506L272.523 694.485L273.502 697.158L276.175 696.179L275.196 693.506Z" fill="#D6D4FF"/>
<path d="M237.009 690.199H235.592V695.355H237.009V690.199Z" fill="#D6D4FF"/>
<path d="M278.479 699.975L279.929 695.649L277.84 694.507C276.677 695.536 275.441 696.705 274.238 697.918L278.479 699.975Z" fill="#10002B"/>
<path d="M256.232 716.537H269.961L269.749 714.78H256.496L256.232 716.537Z" fill="#5A4C7F"/>
<path d="M260.914 716.537H263.036C263.28 716.537 263.479 716.338 263.479 716.094V715.223C263.479 714.979 263.28 714.78 263.036 714.78H260.914C260.67 714.78 260.471 714.979 260.471 715.223V716.094C260.471 716.338 260.668 716.537 260.914 716.537Z" fill="#9696EA"/>
<path d="M263.118 690.266L261.105 692.278L263.118 694.291L265.131 692.278L263.118 690.266Z" fill="#391B85"/>
<path d="M267.253 694.293L265.24 696.306L267.253 698.318L269.266 696.306L267.253 694.293Z" fill="#D6D4FF"/>
<path d="M263.116 694.292L261.104 696.305L263.116 698.317L265.129 696.305L263.116 694.292Z" fill="#D6D4FF"/>
<path d="M258.98 694.292L256.967 696.305L258.98 698.317L260.992 696.305L258.98 694.292Z" fill="#D6D4FF"/>
<path d="M267.253 698.32L265.24 700.333L267.253 702.346L269.266 700.333L267.253 698.32Z" fill="#D6D4FF"/>
<path d="M255.351 690.768L253.338 692.781L255.351 694.794L257.363 692.781L255.351 690.768Z" fill="#D6D4FF"/>
<path d="M243.319 690.769L241.307 692.782L243.319 694.795L245.332 692.782L243.319 690.769Z" fill="#D6D4FF"/>
<path d="M247.298 690.768L245.285 692.781L247.298 694.794L249.311 692.781L247.298 690.768Z" fill="#D6D4FF"/>
<path d="M239.341 690.769L237.328 692.782L239.341 694.795L241.354 692.782L239.341 690.769Z" fill="#D6D4FF"/>
<path d="M251.325 690.769L249.312 692.782L251.325 694.795L253.338 692.782L251.325 690.769Z" fill="#D6D4FF"/>
<path d="M263.118 698.319L261.105 700.332L263.118 702.345L265.131 700.332L263.118 698.319Z" fill="#D6D4FF"/>
<path d="M258.982 698.319L256.969 700.332L258.982 702.345L260.994 700.332L258.982 698.319Z" fill="#D6D4FF"/>
<path d="M267.253 702.346L265.24 704.358L267.253 706.371L269.266 704.358L267.253 702.346Z" fill="#D6D4FF"/>
<path d="M263.116 702.345L261.104 704.357L263.116 706.37L265.129 704.357L263.116 702.345Z" fill="#D6D4FF"/>
<path d="M258.98 702.345L256.967 704.357L258.98 706.37L260.992 704.357L258.98 702.345Z" fill="#D6D4FF"/>
<path d="M267.253 706.374L265.24 708.387L267.253 710.399L269.266 708.387L267.253 706.374Z" fill="#D6D4FF"/>
<path d="M263.116 706.372L261.104 708.385L263.116 710.398L265.129 708.385L263.116 706.372Z" fill="#D6D4FF"/>
<path d="M258.98 706.372L256.967 708.385L258.98 710.398L260.992 708.385L258.98 706.372Z" fill="#D6D4FF"/>
<path d="M267.253 710.399L265.24 712.412L267.253 714.425L269.266 712.412L267.253 710.399Z" fill="#D6D4FF"/>
<path d="M263.116 710.398L261.104 712.411L263.116 714.424L265.129 712.411L263.116 710.398Z" fill="#D6D4FF"/>
<path d="M258.98 710.398L256.967 712.411L258.98 714.424L260.992 712.411L258.98 710.398Z" fill="#D6D4FF"/>
<path d="M265.822 690.202H259.816V691.057C259.816 693.236 261.589 695.007 263.766 695.007C265.945 695.007 267.716 693.234 267.716 691.057V690.315C267.091 690.241 266.458 690.202 265.822 690.202Z" fill="#9696EA"/>
<path d="M263.653 693.506C264.958 693.506 266.014 692.45 266.014 691.146V688.938H261.295V691.146C261.295 692.45 262.351 693.506 263.653 693.506Z" fill="#F5968C"/>
<path d="M266.326 687.468H265.199V678.005C266.519 678.005 267.587 679.075 267.587 680.393V686.205C267.587 686.902 267.023 687.468 266.326 687.468Z" fill="#10002B"/>
<path d="M257.098 681.873C257.098 684.653 259.351 686.906 262.131 686.906C263.804 686.906 265.288 686.088 266.203 684.833C266.809 684.003 267.166 682.978 267.166 681.873C267.166 679.835 265.955 678.08 264.214 677.287C263.579 676.998 262.875 676.838 262.133 676.838C261.426 676.838 260.754 676.984 260.143 677.246C258.351 678.019 257.098 679.8 257.098 681.873Z" fill="#10002B"/>
<path d="M257.838 680.354C257.114 678.937 257.11 677.441 258.623 676.848C260.224 676.221 261.29 677.57 264.013 680.354H257.838Z" fill="#10002B"/>
<path d="M258.562 684.103H257.955C257.457 684.103 257.053 684.507 257.053 685.005V685.549C257.053 686.047 257.457 686.451 257.955 686.451H258.562V684.103Z" fill="#FFBBB3"/>
<path d="M262.061 679.793C264.302 679.793 266.135 681.626 266.135 683.868V687.766C266.135 690.008 264.302 691.841 262.061 691.841C259.82 691.841 257.986 690.008 257.986 687.766V683.868C257.986 681.626 259.82 679.793 262.061 679.793Z" fill="#FFBBB3"/>
<path d="M261.105 686.984H260.619C260.455 686.984 260.3 686.91 260.195 686.783C260.09 686.656 260.051 686.49 260.084 686.328L260.439 684.585C260.461 684.48 260.564 684.411 260.669 684.433C260.775 684.454 260.843 684.558 260.822 684.663L260.466 686.406C260.453 686.469 260.48 686.514 260.498 686.535C260.515 686.557 260.554 686.592 260.619 686.592H261.105C261.212 686.592 261.3 686.68 261.3 686.787C261.3 686.895 261.214 686.984 261.105 686.984Z" fill="#F5968C"/>
<path d="M262.734 679.541C263.662 679.856 265.94 680.682 266.202 681.611C266.877 683.999 265.544 682.581 265.575 683.313C265.501 682.036 264.435 681.023 263.138 681.023C262.49 681.023 261.899 681.275 261.461 681.691C261.455 681.697 261.45 681.703 261.444 681.707C260.618 682.489 259.503 682.968 258.277 682.968C258.244 682.968 258.211 682.968 258.177 682.966C257.676 682.954 257.328 682.45 257.51 681.982C258.289 679.99 260.544 678.805 262.734 679.541Z" fill="#10002B"/>
<path d="M258.452 682.81C259.688 682.81 260.69 681.808 260.69 680.572C260.69 679.337 259.688 678.335 258.452 678.335C257.217 678.335 256.215 679.337 256.215 680.572C256.215 681.808 257.217 682.81 258.452 682.81Z" fill="#10002B"/>
<path d="M266.338 682.847C266.338 682.822 266.338 682.799 266.336 682.773C266.338 682.793 266.338 682.812 266.338 682.832V682.847Z" fill="#231F20"/>
<path d="M259.738 685.155V684.716C259.738 684.491 259.556 684.31 259.332 684.31C259.107 684.31 258.926 684.491 258.926 684.716V685.155H259.738Z" fill="#140D2B"/>
<path d="M262.922 685.155V684.716C262.922 684.491 262.74 684.31 262.515 684.31C262.291 684.31 262.109 684.491 262.109 684.716V685.155H262.922Z" fill="#140D2B"/>
<path d="M262.084 683.54L263.248 683.652L263.276 683.361L262.112 683.249L262.084 683.54Z" fill="#140D2B"/>
<path d="M259.967 683.248L258.803 683.36L258.831 683.652L259.995 683.54L259.967 683.248Z" fill="#140D2B"/>
<path d="M263.266 687.692C263.038 688.616 262.204 689.299 261.21 689.299C260.216 689.299 259.383 688.616 259.154 687.692H263.266Z" fill="white"/>
<path d="M265.74 684.103H266.347C266.845 684.103 267.249 684.507 267.249 685.005V685.549C267.249 686.047 266.845 686.451 266.347 686.451H265.74V684.103Z" fill="#FFBBB3"/>
<path d="M265.475 685.556H265.582V682.649H266.638V684.393C266.636 685.035 266.117 685.556 265.475 685.556Z" fill="#10002B"/>
<path d="M317.894 656.485H275.363V756.295H317.894V656.485Z" fill="#4A0FC7"/>
<path d="M317.895 707.048V715.202L276.38 756.717L275.364 755.701L272.303 752.64L317.895 707.048Z" fill="#10002B"/>
<path d="M289.542 724.65C290.306 724.65 291.041 724.346 291.582 723.805L317.895 697.492V689.338L287.505 719.728C285.688 721.545 286.975 724.65 289.542 724.65Z" fill="#10002B"/>
<path d="M275.363 697.049L315.927 656.485H292.632L275.363 673.754V697.049Z" fill="#10002B"/>
<path d="M275.363 689.442L293.155 671.65C293.63 671.175 293.896 670.533 293.896 669.865C293.896 667.613 291.176 666.488 289.582 668.079L275.363 682.298V689.442Z" fill="#4A0FC7"/>
<path d="M319.341 757.745H273.916V655.038H319.341V757.745ZM276.809 754.851H316.447V657.932H276.809V754.851Z" fill="#D6D4FF"/>
<path d="M317.896 680.327H275.365V683.221H317.896V680.327Z" fill="#D6D4FF"/>
<path d="M317.896 732.457C311.97 732.448 307.894 732.442 304.899 732.437C296.574 732.422 296.574 732.422 288.299 732.437C285.319 732.442 281.268 732.448 275.371 732.457L275.365 729.563C281.262 729.555 285.313 729.549 288.293 729.543C296.574 729.529 296.574 729.529 304.905 729.543C307.902 729.549 311.976 729.555 317.902 729.563L317.896 732.457Z" fill="#D6D4FF"/>
<path d="M296.577 707.905C294.5 707.905 292.428 707.897 288.287 707.882C285.307 707.871 281.256 707.856 275.359 707.839L275.368 704.945C281.265 704.963 285.319 704.98 288.296 704.989C296.571 705.018 296.571 705.018 304.89 704.989C307.888 704.977 311.962 704.963 317.887 704.945L317.896 707.839C311.97 707.856 307.896 707.874 304.899 707.882C300.735 707.897 298.652 707.905 296.577 707.905Z" fill="#D6D4FF"/>
<path d="M322.418 655.038H319.342V756.717H322.418V655.038Z" fill="#5A4C7F"/>
<path d="M176.742 753.024H175.83V759.664H176.742V753.024Z" fill="#10002B"/>
<path d="M177.779 768.265H175.26V789.48H177.779V768.265Z" fill="#9696EA"/>
<path d="M177.776 768.265H176.328V789.48H177.776V768.265Z" fill="#10002B"/>
<path d="M177.777 773.86V769.436H175.26V770.8L177.777 773.86Z" fill="#10002B"/>
<path d="M180.728 758.613H170.426V768.264H185.561V763.439C185.561 760.774 183.397 758.613 180.728 758.613Z" fill="#4A0FC7"/>
<path d="M170.425 758.613C167.756 758.613 165.592 760.774 165.592 763.439V768.264H175.259V763.439C175.259 760.774 173.095 758.613 170.425 758.613Z" fill="#7D2EFF"/>
<path d="M173.13 766.89H167.717C167.338 766.89 167.033 766.584 167.033 766.208C167.033 765.83 167.34 765.525 167.717 765.525H173.13C173.509 765.525 173.813 765.832 173.813 766.208C173.816 766.586 173.509 766.89 173.13 766.89Z" fill="#10002B"/>
<path d="M176.742 753.024V755.109L181.763 754.067L176.742 753.024Z" fill="#7D2EFF"/>
<path d="M185.561 769.617H165.749C165.375 769.617 165.07 769.315 165.07 768.94C165.07 768.566 165.373 768.262 165.749 768.262H185.561V769.617Z" fill="#4A0FC7"/>
<path d="M168.192 765.522L166.633 767.411H171.524L173.08 765.522H168.192Z" fill="#F5EFFF"/>
<path d="M112.431 759H100.13C97.2986 759 95 761.299 95 764.13V793.591H117.561V764.13C117.561 761.294 115.266 759 112.431 759Z" fill="#9696EA"/>
<path d="M117.625 764.129V767.262L95.0645 776.031V770.329L117.058 761.779C117.419 762.48 117.625 763.279 117.625 764.129Z" fill="#B5B5F7"/>
<path d="M117.625 776.422V782.128L95.0645 790.901V785.191L117.625 776.422Z" fill="#B5B5F7"/>
</g>
<defs>
<clipPath id="clip0_51_5398">
<rect width="390" height="844" fill="white"/>
</clipPath>
</defs>
</svg>
