<svg width="34" height="31" viewBox="0 0 34 31" fill="none" xmlns="http://www.w3.org/2000/svg">
<path fill-rule="evenodd" clip-rule="evenodd" d="M15.9795 0.408244C16.2544 0.146188 16.6197 0 16.9995 0C17.3793 0 17.7445 0.146188 18.0194 0.408244L29.845 11.6701L33.5405 15.188C33.8247 15.4585 33.9898 15.8308 33.9995 16.2231C34.0093 16.6153 33.8627 16.9953 33.5922 17.2795C33.3217 17.5638 32.9494 17.7289 32.5571 17.7386C32.1648 17.7483 31.7848 17.6018 31.5006 17.3313L30.3032 16.1887V27.3456C30.3032 28.1296 29.9918 28.8815 29.4373 29.4359C28.8829 29.9903 28.1309 30.3018 27.3468 30.3018H6.65209C5.868 30.3018 5.11603 29.9903 4.5616 29.4359C4.00717 28.8815 3.6957 28.1296 3.6957 27.3456V16.1887L2.49836 17.3298C2.21452 17.6003 1.83485 17.747 1.44286 17.7375C1.05088 17.7281 0.678696 17.5634 0.408187 17.2795C0.137678 16.9957 -0.00899761 16.6161 0.000427717 16.2241C0.00985305 15.8321 0.174607 15.46 0.458445 15.1895L4.15394 11.6701L15.9795 0.406766V0.408244ZM6.65209 13.3743V27.3456H12.5649V19.9549C12.5649 18.7789 13.0321 17.651 13.8637 16.8194C14.6954 15.9878 15.8233 15.5206 16.9995 15.5206C18.1756 15.5206 19.3035 15.9878 20.1352 16.8194C20.9668 17.651 21.4341 18.7789 21.4341 19.9549V27.3456H27.3468V13.3743L16.9995 3.51822L6.65209 13.3729V13.3743ZM18.4777 27.3456V19.9549C18.4777 19.5629 18.3219 19.187 18.0447 18.9098C17.7675 18.6326 17.3915 18.4768 16.9995 18.4768C16.6074 18.4768 16.2314 18.6326 15.9542 18.9098C15.677 19.187 15.5213 19.5629 15.5213 19.9549V27.3456H18.4777Z" fill="#6A0FFF"/>
</svg>
