<svg width="72" height="53" viewBox="0 0 72 53" fill="none" xmlns="http://www.w3.org/2000/svg">
<path fill-rule="evenodd" clip-rule="evenodd" d="M22 0C9.84974 0 0 9.84974 0 22C0 34.1503 9.84973 44 22 44H58.5L72 53V44V21C72 9.40202 62.598 0 51 0H22ZM34 27.0909V27.3068H37.25V27.0909C37.2652 26.2197 37.3636 25.4886 37.5455 24.8977C37.7273 24.3068 38.0152 23.7955 38.4091 23.3636C38.8106 22.9318 39.3333 22.5152 39.9773 22.1136C40.6591 21.7045 41.2424 21.2348 41.7273 20.7045C42.2197 20.1742 42.5985 19.572 42.8636 18.8977C43.1288 18.2159 43.2614 17.4508 43.2614 16.6023C43.2614 15.3674 42.9697 14.2879 42.3864 13.3636C41.8106 12.4318 41 11.7083 39.9545 11.1932C38.9091 10.6705 37.6894 10.4091 36.2955 10.4091C35.0227 10.4091 33.8598 10.6515 32.8068 11.1364C31.7614 11.6212 30.9205 12.3371 30.2841 13.2841C29.6477 14.2235 29.303 15.375 29.25 16.7386H32.7045C32.7576 15.9356 32.9583 15.2803 33.3068 14.7727C33.6553 14.2576 34.0947 13.8788 34.625 13.6364C35.1553 13.3939 35.7121 13.2727 36.2955 13.2727C36.9394 13.2727 37.5227 13.4091 38.0455 13.6818C38.5758 13.947 39 14.3258 39.3182 14.8182C39.6364 15.3106 39.7955 15.8939 39.7955 16.5682C39.7955 17.1288 39.6894 17.6402 39.4773 18.1023C39.2652 18.5644 38.9773 18.9735 38.6136 19.3295C38.25 19.6856 37.8409 20.0076 37.3864 20.2955C36.6818 20.7197 36.0795 21.1894 35.5795 21.7045C35.0795 22.2197 34.6932 22.8939 34.4205 23.7273C34.1553 24.5606 34.0152 25.6818 34 27.0909ZM34.1136 33.5568C34.5606 33.9962 35.0947 34.2159 35.7159 34.2159C36.1326 34.2159 36.5114 34.1136 36.8523 33.9091C37.1932 33.7045 37.4659 33.4318 37.6705 33.0909C37.8826 32.7424 37.9886 32.3598 37.9886 31.9432C37.9886 31.322 37.7614 30.7917 37.3068 30.3523C36.8598 29.9053 36.3295 29.6818 35.7159 29.6818C35.0947 29.6818 34.5606 29.9053 34.1136 30.3523C33.6667 30.7917 33.4432 31.322 33.4432 31.9432C33.4432 32.572 33.6667 33.1098 34.1136 33.5568Z" fill="#F7F7F7"/>
</svg>
