<svg width="34" height="28" viewBox="0 0 34 28" fill="none" xmlns="http://www.w3.org/2000/svg">
<path fill-rule="evenodd" clip-rule="evenodd" d="M0.9248 1.9856C1.36 1.3734 1.935 0.873876 2.60204 0.528534C3.26907 0.183191 4.00887 0.00199559 4.76 0H29.24C30.8312 0 32.2201 0.799 33.0752 1.9856C33.6583 2.7982 34 3.7995 34 4.8739V22.3261C34 24.9594 31.926 27.2 29.24 27.2H4.76C2.074 27.2 0 24.9594 0 22.3261V4.8739C0 3.7995 0.34 2.7982 0.9248 1.9839V1.9856ZM4.9861 3.4L15.742 15.2405C15.9013 15.4158 16.0956 15.5559 16.3122 15.6517C16.5288 15.7476 16.7631 15.7971 17 15.7971C17.2369 15.7971 17.4712 15.7476 17.6878 15.6517C17.9044 15.5559 18.0987 15.4158 18.258 15.2405L29.0139 3.4H4.9861ZM30.6 6.7116L20.774 17.527C20.296 18.0529 19.7133 18.4731 19.0634 18.7606C18.4135 19.0482 17.7107 19.1967 17 19.1967C16.2893 19.1967 15.5865 19.0482 14.9366 18.7606C14.2867 18.4731 13.704 18.0529 13.226 17.527L3.4 6.7116V22.3261C3.4 23.1999 4.0664 23.8 4.76 23.8H29.24C29.9336 23.8 30.6 23.1999 30.6 22.3261V6.7116Z" fill="#6A0FFF"/>
</svg>
