<svg width="34" height="34" viewBox="0 0 34 34" fill="none" xmlns="http://www.w3.org/2000/svg">
<path fill-rule="evenodd" clip-rule="evenodd" d="M11.6284 22.3718C15.71 26.4534 19.501 28.7284 22.3218 29.9927C24.7852 31.0967 27.6923 30.2304 29.9585 27.9642L30.4762 27.4448L24.2499 23.4829C23.0667 25.2085 20.8287 26.221 18.5942 25.279C16.902 24.5641 14.6623 23.342 12.6602 21.34C10.6582 19.3379 9.43793 17.0981 8.72304 15.406C7.77924 13.1715 8.78995 10.9335 10.5173 9.75017L6.55548 3.52387L6.03604 4.04155C3.76987 6.30774 2.9053 9.21488 4.00758 11.6783C5.27184 14.4991 7.54682 18.2902 11.6284 22.3718ZM20.8832 33.2062C17.6874 31.7747 13.5371 29.2602 9.13859 24.8616C4.74008 20.4648 2.22563 16.3128 0.792325 13.1169C-1.10055 8.89088 0.628569 4.47119 3.54624 1.55173L4.06392 1.03229C4.43676 0.659198 4.88865 0.374624 5.38621 0.199581C5.88377 0.0245382 6.41429 -0.0365028 6.9386 0.0209658C7.46292 0.0784343 7.96762 0.252945 8.41545 0.53161C8.86328 0.810275 9.2428 1.18598 9.52597 1.63097L14.5091 9.46668C14.6411 9.67453 14.728 9.90775 14.7643 10.1513C14.8005 10.3948 14.7853 10.6432 14.7196 10.8805C14.6539 11.1178 14.5391 11.3387 14.3828 11.5289C14.2264 11.719 14.0319 11.8743 13.8118 11.9847L12.6972 12.5429C11.9365 12.9232 11.7816 13.5941 11.9665 14.036C12.5634 15.45 13.5618 17.2601 15.15 18.8502C16.74 20.4384 18.5502 21.4368 19.9641 22.0337C20.4061 22.2204 21.0769 22.0637 21.4573 21.303L22.0154 20.1884C22.1256 19.9681 22.2808 19.7735 22.4709 19.6169C22.661 19.4604 22.8819 19.3454 23.1192 19.2796C23.3565 19.2137 23.6049 19.1983 23.8485 19.2344C24.0921 19.2706 24.3255 19.3574 24.5334 19.4893L32.369 24.4743C32.814 24.7574 33.1897 25.137 33.4684 25.5848C33.7471 26.0326 33.9216 26.5373 33.979 27.0616C34.0365 27.586 33.9755 28.1165 33.8004 28.6141C33.6254 29.1116 33.3408 29.5635 32.9677 29.9364L32.4483 30.454C29.5306 33.3735 25.111 35.1009 20.8832 33.2062Z" fill="#6A0FFF"/>
</svg>
