<svg width="1440" height="1024" viewBox="0 0 1440 1024" fill="none" xmlns="http://www.w3.org/2000/svg">
<g clip-path="url(#clip0_144_6)">
<rect width="1440" height="1024" fill="white"/>
<rect width="1440" height="1024" fill="#F2ECFF"/>
<path d="M-191.652 402.292L-171.633 844.301L-169.64 888.294L1640.43 806.313L1615.43 254.263L1471.17 260.796L1484.97 565.441L1364.23 570.91L1359.7 471.096L1260.92 475.57L1257.27 395.152L1171.55 399.034L940.507 490.082L948.413 664.638L856.42 668.804L851.535 560.949L649.776 570.087L635.614 257.4L546.924 184.152L465.218 265.118L482.615 649.235L304.9 657.284L298.644 519.153L164.836 525.214L167.857 591.914L80.5674 595.867L73.4113 437.868L-191.652 402.292Z" fill="#EBE2FF"/>
<path fill-rule="evenodd" clip-rule="evenodd" d="M203.653 661.024C196.912 658.606 189.567 657.53 181.965 658.096C167.131 659.201 154.191 666.345 145.371 676.94C135.788 680.116 127.493 685.943 121.281 693.498C116.945 692.221 112.31 691.691 107.537 692.047C86.3111 693.628 70.3863 712.117 71.9675 733.342C72.075 734.785 72.2607 736.204 72.5201 737.595L279.201 722.198C280.914 716.313 281.622 710.028 281.14 703.557C278.978 674.531 253.694 652.753 224.668 654.915C217.066 655.482 209.961 657.634 203.653 661.024Z" fill="#8B81A3"/>
<path fill-rule="evenodd" clip-rule="evenodd" d="M57.4723 657.744C65.48 653.603 74.4662 651.036 84.0464 650.476C102.74 649.382 120.077 656.138 132.848 667.889C145.335 670.255 156.657 676.143 165.668 684.535C170.865 682.219 176.561 680.785 182.577 680.433C209.325 678.868 232.277 699.284 233.842 726.032C233.949 727.851 233.953 729.652 233.861 731.43L-26.5992 746.668C-29.7173 739.611 -31.6482 731.886 -32.1253 723.731C-34.2652 687.152 -6.34691 655.764 30.232 653.624C39.8123 653.063 49.0364 654.565 57.4723 657.744Z" fill="#43375E"/>
<path fill-rule="evenodd" clip-rule="evenodd" d="M1408.12 580.264C1399.61 577.289 1390.35 576.01 1380.79 576.801C1362.12 578.343 1345.91 587.467 1334.91 600.895C1322.88 604.991 1312.5 612.411 1304.76 621.984C1299.29 620.422 1293.45 619.802 1287.44 620.298C1260.74 622.505 1240.88 645.942 1243.09 672.645C1243.24 674.46 1243.48 676.245 1243.82 677.992L1503.84 656.501C1505.94 649.076 1506.77 641.156 1506.09 633.015C1503.08 596.498 1471.03 569.342 1434.51 572.36C1424.95 573.151 1416.02 575.933 1408.12 580.264Z" fill="#43375E"/>
<path d="M-144 741.009L1584 648V2222H-144L-144 741.009Z" fill="#251151"/>
<path d="M1.12203 909.793L1731.5 805" stroke="#F2ECFF" stroke-width="7" stroke-dasharray="200 200"/>
<circle cx="1029" cy="776.012" r="28" transform="rotate(-2.70523 1029 776.012)" fill="#2E2640"/>
<circle cx="1029" cy="776.012" r="11" transform="rotate(-2.70523 1029 776.012)" fill="#8B81A3"/>
<path d="M970.653 600.571C970.523 597.812 972.653 595.471 975.411 595.34V595.34C978.17 595.21 980.512 597.34 980.642 600.099L981.35 615.082L971.361 615.554L970.653 600.571Z" fill="#8A53FF"/>
<path d="M972.65 600.476C972.572 598.821 973.85 597.416 975.505 597.338V597.338C977.16 597.26 978.565 598.538 978.644 600.193L979.068 609.183L973.075 609.466L972.65 600.476Z" fill="#FFC635"/>
<rect x="950.92" y="712.626" width="122" height="76" transform="rotate(-2.70523 950.92 712.626)" fill="#6A0FFF"/>
<path d="M914.421 692.327L1036.28 686.569L1072.78 706.869L950.92 712.627L914.421 692.327Z" fill="#4E00CE"/>
<path d="M873.914 640.18L995.279 634.446L1036.28 686.568L914.42 692.326L873.914 640.18Z" fill="#6A0FFF"/>
<path d="M887.683 645.537L991.067 640.652L1023.04 681.688L919.655 686.573L887.683 645.537Z" fill="#10002B"/>
<path d="M826.468 642.422L874.217 640.166L914.567 692.32L950.92 712.627L879.296 716.011L830.055 718.338L826.468 642.422Z" fill="#6A24FF"/>
<rect x="808.542" y="623.247" width="15" height="96" transform="rotate(-2.70523 808.542 623.247)" fill="#6A24FF"/>
<path d="M825.052 612.456L872.998 610.19L879.2 624.914L825.76 627.439L825.052 612.456Z" fill="#6A24FF"/>
<rect x="825.76" y="627.439" width="48" height="15" transform="rotate(-2.70523 825.76 627.439)" fill="#6A24FF"/>
<path d="M873.706 625.173L1002.56 619.085L1003.27 634.068L874.414 640.157L873.706 625.173Z" fill="#4E00CE"/>
<path d="M872.998 610.19L993.863 604.48L1000.07 619.203L879.2 624.914L872.998 610.19Z" fill="#6A0FFF"/>
<path d="M919.655 686.574L914.33 679.817L993.206 643.554L1000.65 652.713L930.143 686.078L919.655 686.574Z" fill="#F7F7F7"/>
<path d="M1002.79 655.615L942.13 685.511L953.118 684.992L1005.97 659.469L1002.79 655.615Z" fill="#F7F7F7"/>
<path d="M953.846 774.558L1075.71 768.8L1076.37 782.784L954.506 788.542L953.846 774.558Z" fill="#4E00CE"/>
<path d="M809.762 606.671C809.618 603.637 811.962 601.061 814.996 600.918V600.918C818.03 600.774 820.606 603.118 820.749 606.152L821.528 622.634L810.54 623.153L809.762 606.671Z" fill="#8A53FF"/>
<path d="M811.759 606.577C811.668 604.646 813.159 603.007 815.09 602.915V602.915C817.021 602.824 818.66 604.315 818.751 606.246L819.2 615.736L812.207 616.066L811.759 606.577Z" fill="#FFC635"/>
<path d="M377.032 686.183C376.889 683.149 379.232 680.573 382.266 680.43V680.43C385.301 680.287 387.876 682.63 388.02 685.664L388.799 702.146L377.811 702.665L377.032 686.183Z" fill="#8A53FF"/>
<path d="M379.029 686.089C378.938 684.158 380.43 682.519 382.36 682.428V682.428C384.291 682.336 385.93 683.828 386.022 685.758L386.47 695.248L379.478 695.578L379.029 686.089Z" fill="#FFC635"/>
<path d="M500.037 683.375C499.919 680.892 501.837 678.785 504.319 678.667V678.667C506.802 678.55 508.909 680.468 509.027 682.95L509.664 696.435L500.674 696.86L500.037 683.375Z" fill="#8A53FF"/>
<path d="M502.034 683.28C501.969 681.901 503.034 680.73 504.413 680.665V680.665C505.792 680.6 506.963 681.665 507.028 683.044L507.382 690.536L502.388 690.772L502.034 683.28Z" fill="#FFC635"/>
<rect x="785.104" y="720.461" width="28" height="76" transform="rotate(-2.70523 785.104 720.461)" fill="#6A24FF"/>
<path d="M789.6 720.249L781.109 720.651L811.776 691.671L812.106 698.663L789.6 720.249Z" fill="#3B009C"/>
<path d="M403.948 768.505L390.962 769.118L435.425 799.053L434.953 789.064L403.948 768.505Z" fill="#3B009C"/>
<path d="M836.24 647.967L869.203 646.41L902.721 688.375L838.293 691.419L836.24 647.967Z" fill="#10002B"/>
<path d="M894.154 678.267C899.163 678.031 903.417 681.9 903.653 686.91L903.791 689.825L888.721 690.538C885.459 690.692 882.689 688.172 882.535 684.91V684.91C882.377 681.552 884.97 678.701 888.328 678.543L894.154 678.267Z" fill="#3B009C"/>
<path d="M869.758 689.932L867.705 646.48L870.202 646.362L872.255 689.814L869.758 689.932Z" fill="#6A24FF"/>
<path d="M868.437 661.963L837.963 684.427L838.246 690.42L868.743 668.456L868.437 661.963Z" fill="#F7F7F7"/>
<path fill-rule="evenodd" clip-rule="evenodd" d="M950.919 712.627L813.073 719.14L816.66 795.055L867.325 792.662C866.746 790.427 866.387 788.1 866.274 785.703C865.388 766.947 879.875 751.023 898.632 750.137C917.388 749.25 933.312 763.737 934.198 782.494C934.312 784.891 934.174 787.241 933.808 789.52L954.506 788.542L950.919 712.627Z" fill="#6A24FF"/>
<rect x="839.005" y="695.89" width="5" height="10" transform="rotate(-2.70523 839.005 695.89)" fill="#3B009C"/>
<circle cx="970.843" cy="734.244" r="8.4253" transform="rotate(-5.89601 970.843 734.244)" fill="#FFD569"/>
<path d="M979.224 733.378C979.089 732.071 978.649 730.813 977.941 729.705C977.233 728.598 976.276 727.671 975.146 727C974.015 726.329 972.744 725.931 971.432 725.839C970.121 725.747 968.806 725.963 967.594 726.47C966.381 726.977 965.303 727.761 964.448 728.759C963.592 729.757 962.981 730.941 962.665 732.217C962.349 733.493 962.335 734.825 962.626 736.107C962.917 737.389 963.503 738.585 964.339 739.6L970.843 734.244L979.224 733.378Z" fill="#FFC635"/>
<circle cx="978.217" cy="744.07" r="2.10633" transform="rotate(-5.89601 978.217 744.07)" fill="#E0C348"/>
<circle cx="1063.14" cy="740.406" r="2.10633" transform="rotate(-5.89601 1063.14 740.406)" fill="#E0C348"/>
<circle cx="1055.76" cy="730.579" r="8.4253" transform="rotate(-5.89601 1055.76 730.579)" fill="#FFD569"/>
<rect x="373.563" y="739.907" width="412" height="30" transform="rotate(-2.70523 373.563 739.907)" fill="#6A24FF"/>
<rect x="374.814" y="702.807" width="18" height="37" transform="rotate(-2.70523 374.814 702.807)" fill="#6A24FF"/>
<rect x="392.794" y="701.957" width="122" height="37" transform="rotate(-2.70523 392.794 701.957)" fill="#6A0FFF"/>
<path fill-rule="evenodd" clip-rule="evenodd" d="M439.408 766.829L786.521 750.428L788.031 782.392L557.289 793.295L557.949 807.279L546.241 807.833C546.607 805.554 546.745 803.203 546.631 800.806C545.745 782.05 529.821 767.563 511.065 768.449C492.308 769.335 477.821 785.259 478.707 804.016C478.82 806.413 479.179 808.74 479.758 810.974L468.05 811.527L467.389 797.543L440.919 798.793L439.408 766.829Z" fill="#3B009C"/>
<rect x="695.952" y="761.715" width="84" height="39" transform="rotate(-2.70523 695.952 761.715)" fill="#240060"/>
<rect x="369.985" y="770.109" width="32" height="8" transform="rotate(-2.70523 369.985 770.109)" fill="#3B009C"/>
<rect x="440.049" y="769.802" width="29" height="6" transform="rotate(87.2948 440.049 769.802)" fill="#3B009C"/>
<circle cx="512.669" cy="802.411" r="30" transform="rotate(-2.70523 512.669 802.411)" fill="#2E2640"/>
<circle cx="512.669" cy="802.411" r="12" transform="rotate(-2.70523 512.669 802.411)" fill="#8B81A3"/>
<circle cx="900.236" cy="784.099" r="30" transform="rotate(-2.70523 900.236 784.099)" fill="#2E2640"/>
<circle cx="900.237" cy="784.098" r="12" transform="rotate(-2.70523 900.237 784.098)" fill="#8B81A3"/>
<rect x="918.664" y="729.167" width="23" height="5" transform="rotate(-2.70523 918.664 729.167)" fill="#FFC635"/>
<path d="M995.186 759.59C994.847 752.418 1000.39 746.33 1007.56 745.991L1030.53 744.905C1037.7 744.567 1043.79 750.106 1044.13 757.277L1044.74 770.263L995.799 772.576L995.186 759.59Z" fill="#240060"/>
<mask id="mask0_144_6" style="mask-type:alpha" maskUnits="userSpaceOnUse" x="995" y="744" width="50" height="29">
<path d="M995.186 759.59C994.847 752.418 1000.39 746.33 1007.56 745.991L1030.53 744.905C1037.7 744.567 1043.79 750.106 1044.13 757.277L1044.74 770.263L995.799 772.576L995.186 759.59Z" fill="#D9D9D9"/>
</mask>
<g mask="url(#mask0_144_6)">
<line x1="1005.06" y1="746.109" x2="1006.29" y2="772.08" stroke="#3B009C"/>
<line x1="1013.05" y1="745.731" x2="1014.28" y2="771.702" stroke="#3B009C"/>
<line x1="1017.05" y1="745.542" x2="1018.27" y2="771.513" stroke="#3B009C"/>
<line x1="1021.04" y1="745.354" x2="1022.27" y2="771.325" stroke="#3B009C"/>
<line x1="1025.04" y1="745.165" x2="1026.27" y2="771.136" stroke="#3B009C"/>
<line x1="1029.03" y1="744.976" x2="1030.26" y2="770.947" stroke="#3B009C"/>
<line x1="1033.03" y1="744.787" x2="1034.26" y2="770.758" stroke="#3B009C"/>
<line x1="1037.02" y1="744.598" x2="1038.25" y2="770.57" stroke="#3B009C"/>
<line x1="1041.02" y1="744.41" x2="1042.25" y2="770.381" stroke="#3B009C"/>
<line x1="1001.06" y1="746.298" x2="1002.29" y2="772.269" stroke="#3B009C"/>
<line x1="997.07" y1="746.487" x2="998.297" y2="772.458" stroke="#3B009C"/>
<line x1="1009.06" y1="745.92" x2="1010.28" y2="771.891" stroke="#3B009C"/>
</g>
<path d="M1064.15 729.714C1064.01 728.406 1063.57 727.148 1062.86 726.041C1062.16 724.933 1061.2 724.007 1060.07 723.335C1058.94 722.664 1057.67 722.267 1056.35 722.175C1055.04 722.083 1053.73 722.299 1052.52 722.806C1051.3 723.313 1050.23 724.096 1049.37 725.094C1048.51 726.092 1047.9 727.276 1047.59 728.552C1047.27 729.828 1047.26 731.16 1047.55 732.442C1047.84 733.724 1048.43 734.921 1049.26 735.935L1055.76 730.579L1064.15 729.714Z" fill="#FFC635"/>
</g>
<defs>
<clipPath id="clip0_144_6">
<rect width="1440" height="1024" fill="white"/>
</clipPath>
</defs>
</svg>
