<svg width="98" height="18" viewBox="0 0 98 18" fill="none" xmlns="http://www.w3.org/2000/svg">
<path d="M9 0L11.0206 6.21885H17.5595L12.2694 10.0623L14.2901 16.2812L9 12.4377L3.70993 16.2812L5.73056 10.0623L0.440492 6.21885H6.97937L9 0Z" fill="#10002B"/>
<path d="M28.8301 0L30.8507 6.21885H37.3896L32.0995 10.0623L34.1201 16.2812L28.8301 12.4377L23.54 16.2812L25.5606 10.0623L20.2706 6.21885H26.8095L28.8301 0Z" fill="#10002B"/>
<path d="M48.6621 0L50.6827 6.21885H57.2216L51.9316 10.0623L53.9522 16.2812L48.6621 12.4377L43.372 16.2812L45.3927 10.0623L40.1026 6.21885H46.6415L48.6621 0Z" fill="#10002B"/>
<path d="M68.4922 0L70.5128 6.21885H77.0517L71.7616 10.0623L73.7823 16.2812L68.4922 12.4377L63.2021 16.2812L65.2227 10.0623L59.9327 6.21885H66.4716L68.4922 0Z" fill="#10002B"/>
<path d="M88.3223 0L90.3429 6.21885H96.8818L91.5917 10.0623L93.6123 16.2812L88.3223 12.4377L83.0322 16.2812L85.0528 10.0623L79.7628 6.21885H86.3016L88.3223 0Z" fill="#10002B"/>
</svg>
